<?xml version="1.0" encoding="UTF-8"?><svg id="_레이어_2" xmlns="http://www.w3.org/2000/svg" viewBox="0 0 17.72 21.78"><defs><style>.cls-1{fill:#fff;}</style></defs><g id="livetype"><g><path class="cls-1" d="M14.8,11.58c-.03-2.75,2.25-4.09,2.36-4.15-1.29-1.88-3.29-2.14-3.99-2.16-1.68-.18-3.31,1-4.16,1s-2.19-.99-3.61-.96c-1.83,.03-3.54,1.09-4.47,2.73-1.93,3.35-.49,8.27,1.36,10.98,.93,1.33,2.01,2.81,3.43,2.75,1.39-.06,1.91-.88,3.58-.88s2.14,.88,3.59,.85c1.49-.02,2.43-1.33,3.32-2.67,1.07-1.52,1.5-3.02,1.52-3.09-.03-.01-2.89-1.1-2.92-4.4Z"/><path class="cls-1" d="M12.07,3.49c.75-.93,1.26-2.2,1.11-3.49-1.08,.05-2.43,.75-3.21,1.66-.69,.8-1.3,2.12-1.14,3.36,1.21,.09,2.46-.61,3.24-1.53Z"/></g></g></svg>