<?xml version="1.0" encoding="UTF-8"?><svg id="_레이어_2" xmlns="http://www.w3.org/2000/svg" viewBox="0 0 79.97 71.77"><defs><style>.cls-1{fill:#fff;}.cls-2{fill:#4d4d4d;}.cls-3{fill:#00b2ff;}</style></defs><g id="_레이어_2-2"><g><path class="cls-1" d="M79.97,23.29c0-2.23-.32-4.43-.94-6.55-.65-2.2-2.41-3.9-4.63-4.46-2.22-.57-4.58,.08-6.2,1.7l-7.85,7.85-2.21-2.21,7.85-7.85c1.62-1.62,2.27-3.97,1.71-6.19s-2.25-3.98-4.45-4.63c-2.11-.63-4.32-.94-6.56-.94-10.54,0-19.46,7.04-22.32,16.66-.29-.53-.66-1.02-1.1-1.46L22.66,4.59c-2.51-2.51-5.84-3.89-9.39-3.89S6.39,2.09,3.88,4.59C-1.29,9.77-1.29,18.19,3.88,23.37l10.61,10.6c1.43,1.43,3.45,2.12,5.45,1.85,.06,0,.12-.01,.17-.02,.32,.71,.76,1.37,1.34,1.94l1.44,1.44-11.8,11.56c-2.2,2.2-3.41,5.13-3.41,8.24,0,3.12,1.21,6.04,3.41,8.25l1.13,1.13c2.2,2.2,5.13,3.41,8.24,3.41s6.04-1.21,8.2-3.37l13.72-13.44,2.87,2.86c-.02,.95,.1,1.92,.37,2.86,.66,2.27,2.12,4.24,4.12,5.55l6.82,4.46c2.57,1.68,5.98,1.33,8.16-.84l4.05-4.05c2.18-2.18,2.53-5.58,.84-8.16l-4.46-6.82c-1.31-2-3.28-3.46-5.55-4.12-.3-.09-.61-.16-.92-.22,11.91-1.01,21.3-11.03,21.3-23.2Z"/><path class="cls-3" d="M72.79,18.58l-12.45,12.45-11.4-11.4,12.45-12.45c-1.49-.44-3.07-.68-4.71-.68-9.27,0-16.78,7.51-16.78,16.78,0,2.46,.53,4.79,1.48,6.89l-2.54,2.49,8.25,8.58,2.71-2.65c2.1,.95,4.43,1.48,6.89,1.48,9.27,0,16.78-7.51,16.78-16.78,0-1.64-.24-3.22-.68-4.71ZM15.69,55.35c-2.01,2.01-2.02,5.28,0,7.29l1.13,1.13c2.01,2.01,5.28,2.01,7.29,0l16.15-15.83-8.44-8.4-16.12,15.81Zm6.97,5.91h-2.62l-1.85-1.85v-2.62s1.85-1.85,1.85-1.85h2.61l1.85,1.85v2.62s-1.85,1.85-1.85,1.85Z"/><path class="cls-2" d="M8.48,9.19c-2.65,2.65-2.65,6.94,0,9.58l10.61,10.61c4.8-.64,7.84,1.83,6.96,3.77l1.92,1.92,6.39-6.39-1.92-1.92c-1.94,.87-4.41-2.17-3.77-6.96l-10.61-10.61c-2.65-2.65-6.94-2.65-9.58,0Zm14.25,15.58c.55,.55,.55,1.44,0,1.98l-.26,.26c-.55,.55-1.44,.55-1.98,0l-10.66-10.66c-.55-.55-.55-1.44,0-1.98l.26-.26c.55-.55,1.44-.55,1.98,0l10.66,10.66Zm3.57-3.57c.55,.55,.55,1.44,0,1.98l-.26,.26c-.55,.55-1.44,.55-1.98,0L13.4,12.78c-.55-.55-.55-1.44,0-1.98l.26-.26c.55-.55,1.44-.55,1.98,0l10.66,10.66Zm29.3,32l-.75,.46-21.78-22.65-2.77,2.77,22.28,22.15-.46,.75c-.38,.62-.47,1.4-.25,2.18s.74,1.46,1.43,1.92l6.81,4.46,4.05-4.05-4.46-6.81c-.45-.69-1.15-1.21-1.92-1.43-.77-.22-1.56-.13-2.18,.25Z"/></g></g></svg>