<?xml version="1.0" encoding="UTF-8"?><svg id="_레이어_2" xmlns="http://www.w3.org/2000/svg" viewBox="0 0 23.01 25.72"><defs><style>.cls-1{fill:#fbbc04;}.cls-2{fill:#4285f4;}.cls-3{fill:#34a853;}.cls-4{fill:#ea4335;}</style></defs><g id="artwork"><g><path class="cls-4" d="M10.74,12.28L.1,23.58s0,0,0,0c.33,1.23,1.45,2.13,2.78,2.13,.53,0,1.03-.14,1.46-.4l.03-.02,11.98-6.91-5.61-6.11Z"/><path class="cls-1" d="M21.52,10.36h-.01s-5.17-3.01-5.17-3.01l-5.83,5.19,5.85,5.85,5.15-2.97c.9-.49,1.51-1.44,1.51-2.53s-.6-2.04-1.5-2.52Z"/><path class="cls-2" d="M.1,2.14c-.06,.24-.1,.48-.1,.74V22.84c0,.26,.03,.5,.1,.74L11.11,12.57,.1,2.14Z"/><path class="cls-3" d="M10.82,12.86l5.51-5.51L4.36,.41c-.43-.26-.94-.41-1.49-.41C1.55,0,.42,.91,.1,2.13c0,0,0,0,0,0L10.82,12.86Z"/></g></g></svg>