<?xml version="1.0" encoding="UTF-8"?><svg id="_이어_2" xmlns="http://www.w3.org/2000/svg" viewBox="0 0 319.54 166.68"><defs><style>.cls-1{fill:#74ffae;}.cls-2{fill:#fff;}.cls-3{fill:#00b897;}</style></defs><g id="_이어_1-2"><g><rect class="cls-2" x="42.32" y="116.51" width="6.02" height="49.55"/><path class="cls-2" d="M181.26,155.2c-3.95,4.18-8.62,6.26-14.01,6.26-5.75,0-10.16-1.78-13.24-5.35-3.08-3.57-4.61-8.86-4.61-15.86,0-3.37,.47-6.34,1.41-8.93,.94-2.58,2.22-4.75,3.84-6.5,1.62-1.75,3.52-3.08,5.73-3.97,2.2-.9,4.56-1.35,7.07-1.35,5.43,0,9.9,1.93,13.4,5.79,.22,.23,.43,.32,.61,.27,.18-.04,.27-.22,.27-.54v-6.2c-2.07-1.62-4.29-2.75-6.67-3.4-2.38-.65-5.05-.98-8.02-.98-3.46,0-6.65,.6-9.56,1.79-2.92,1.19-5.45,2.92-7.58,5.19-2.13,2.27-3.8,5.02-4.98,8.25-1.19,3.23-1.79,6.87-1.79,10.91s.52,7.46,1.55,10.64c1.03,3.19,2.55,5.93,4.55,8.22,2,2.29,4.42,4.06,7.27,5.32,2.85,1.26,6.1,1.89,9.73,1.89,3.19,0,6.11-.43,8.76-1.28,2.65-.85,5.03-2.18,7.14-3.97v-5.93c0-.63-.29-.72-.88-.27Z"/><polygon class="cls-2" points="192.57 166.12 224.16 166.12 224.16 160.93 198.5 160.93 198.5 140.72 222.34 140.72 222.34 135.74 198.5 135.74 198.5 120.11 224.16 120.11 224.16 115.06 192.57 115.06 192.57 166.12"/><polygon class="cls-2" points="249.98 115.06 232.6 166.05 238.73 166.05 243.38 151.5 245.13 146.65 253.49 119.64 253.55 119.64 262.38 146.65 264.2 151.5 268.78 166.05 274.91 166.05 257.46 115.06 249.98 115.06"/><polygon class="cls-2" points="313.95 115.06 313.95 154.39 314.01 159.72 311.86 154.53 292.39 115.06 283.3 115.06 283.3 166.05 288.82 166.05 288.82 125.16 288.75 119.84 290.91 124.69 311.18 166.05 319.54 166.05 319.54 115.06 313.95 115.06"/><path class="cls-2" d="M116.88,114.98c-10.72,0-19.43,10.37-19.43,23.12,0,.85,.04,1.74,.13,2.56-.09,.92-.13,1.81-.13,2.66,0,12.75,8.72,23.12,19.43,23.12s19.44-10.37,19.44-23.12c0-.84-.04-1.74-.13-2.56,.09-.92,.13-1.81,.13-2.66,0-12.75-8.72-23.12-19.44-23.12Zm17.3,25.68c-1.06,10.58-8.5,18.56-17.3,18.56s-16.24-7.98-17.3-18.46c1.06-10.58,8.5-18.56,17.3-18.56s16.24,7.98,17.3,18.46Z"/><polygon class="cls-2" points="56.53 121.66 70.37 121.81 69.93 166.03 76.08 166.1 76.52 121.88 90.72 122.04 90.77 116.7 56.58 116.33 56.53 121.66"/><path class="cls-2" d="M29.72,143.23c-1-1.09-2.2-1.99-3.6-2.7-1.4-.71-2.97-1.18-4.7-1.4v-.13c2.8-.8,5-2.21,6.6-4.24,1.6-2.02,2.4-4.44,2.4-7.24,0-1.56-.31-3.02-.93-4.4-.62-1.38-1.56-2.58-2.8-3.6-1.25-1.02-2.77-1.83-4.57-2.43-1.8-.6-3.88-.9-6.24-.9H0v50.49H16.08c2.85,0,5.32-.42,7.44-1.27,2.11-.85,3.87-1.97,5.27-3.37,1.4-1.4,2.43-2.99,3.1-4.77,.67-1.78,1-3.58,1-5.4s-.28-3.34-.83-4.8c-.56-1.47-1.33-2.75-2.33-3.84ZM5.1,121.12H14.34c3.29,0,5.76,.58,7.4,1.73,1.64,1.16,3.47,3.07,3.47,5.74,0,3.07-1.95,5.23-3.83,6.47-1.89,1.25-4.46,1.87-7.7,1.87H5.1v-15.81Zm18.48,37.89c-1.89,1.78-4.64,2.67-8.24,2.67H5.1v-19.88H14.14c4.18,0,7.27,.87,9.27,2.6,2,1.73,4,4.2,4,7.4,0,3.02-1.95,5.43-3.83,7.2Z"/></g><g><circle class="cls-3" cx="159.77" cy="47.65" r="47.65"/><circle class="cls-1" cx="146.12" cy="71.84" r="19.85"/><path class="cls-2" d="M163.24,81.47h-19.86c-2.03,0-3.68-1.65-3.68-3.68V15.56c0-2.03,1.65-3.68,3.68-3.68h19.58c3.25,0,6.11,.41,8.6,1.24,2.48,.83,4.58,1.95,6.3,3.36,1.71,1.41,3,3.07,3.86,4.96,.86,1.9,.73,3.92,.73,6.07,0,3.86,0,7.19-2.2,9.97-2.21,2.79-4.13,4.73-7.99,5.84v.18c2.39,.31,3.44,.95,5.37,1.93,1.93,.98,3.03,2.22,4.41,3.72,1.38,1.5,1.9,3.26,2.66,5.29,.77,2.02,.6,4.23,.6,6.62,0,2.51,.09,5-.83,7.45-.92,2.45-1.79,4.64-3.72,6.57-1.93,1.93-4.35,3.48-7.26,4.64-2.91,1.16-6.33,1.75-10.25,1.75Zm-2.39-62.78h-9.38c-2.03,0-3.68,1.65-3.68,3.68v14.43c0,2.03,1.65,3.68,3.68,3.68h8.46c4.47,0,8.01-.86,10.62-2.57,2.6-1.72,3.91-4.69,3.91-8.92,0-3.68-1.13-6.31-3.4-7.91-2.27-1.59-5.67-2.39-10.2-2.39Zm-.28,28.5h-9.1c-2.03,0-3.68,1.65-3.68,3.68v20.04c0,2.03,1.65,3.68,3.68,3.68h10.76c4.96,0,8.75-1.23,11.35-3.68,2.6-2.45,3.91-5.76,3.91-9.93,0-4.41-1.38-7.81-4.14-10.2-2.76-2.39-7.02-3.58-12.78-3.58Z"/></g></g></svg>