<?xml version="1.0" encoding="utf-8"?>
<!-- Generator: Adobe Illustrator 26.3.1, SVG Export Plug-In . SVG Version: 6.00 Build 0)  -->
<svg version="1.1" id="레이어_1" xmlns="http://www.w3.org/2000/svg" xmlns:xlink="http://www.w3.org/1999/xlink" x="0px"
	 y="0px" viewBox="0 0 50 50" style="enable-background:new 0 0 50 50;" xml:space="preserve">
<style type="text/css">
	.st0{fill-rule:evenodd;clip-rule:evenodd;fill:#FFFFFF;}
</style>
<g id="Page-1">
	<g id="Social-Icons---Isolated" transform="translate(-55.000000, -951.000000)">
		<path id="Apple" class="st0" d="M86.6,960.1c1.5-2,2.7-4.8,2.3-7.7c-2.5,0.2-5.5,1.8-7.2,3.9c-1.6,1.9-2.8,4.7-2.3,7.5
			C82.1,963.9,84.9,962.2,86.6,960.1L86.6,960.1z M100.1,987c-1.1,2.5-1.6,3.5-3,5.7c-2,3-4.8,6.8-8.2,6.8c-3.1,0-3.9-2-8-2
			c-4.2,0-5,2-8.1,2c-3.5,0-6.1-3.4-8.1-6.5c-5.5-8.5-6.1-18.4-2.7-23.7c2.4-3.8,6.2-5.9,9.8-5.9c3.7,0,6,2,9,2c2.9,0,4.7-2,9-2
			c3.2,0,6.6,1.8,9,4.8C90.9,972.6,92.1,984,100.1,987L100.1,987z"/>
	</g>
</g>
</svg>
