<?xml version="1.0" encoding="UTF-8"?><svg id="_이어_2" xmlns="http://www.w3.org/2000/svg" xmlns:xlink="http://www.w3.org/1999/xlink" viewBox="0 0 200 34.93"><defs><style>.cls-1{clip-path:url(#clippath-20);}.cls-2{clip-path:url(#clippath-11);}.cls-3{clip-path:url(#clippath-16);}.cls-4{fill:#fff;}.cls-5{clip-path:url(#clippath-2);}.cls-6{clip-path:url(#clippath-13);}.cls-7{isolation:isolate;}.cls-8{clip-path:url(#clippath-15);}.cls-9{clip-path:url(#clippath-6);}.cls-10{clip-path:url(#clippath-7);}.cls-11{clip-path:url(#clippath-21);}.cls-12{clip-path:url(#clippath-1);}.cls-13{clip-path:url(#clippath-4);}.cls-14{fill:#76fcb2;}.cls-15{clip-path:url(#clippath-12);}.cls-16{fill:#00b897;}.cls-17{clip-path:url(#clippath-22);}.cls-18{clip-path:url(#clippath-9);}.cls-19{clip-path:url(#clippath);}.cls-20{clip-rule:evenodd;}.cls-20,.cls-21{fill:none;}.cls-22{clip-path:url(#clippath-19);}.cls-23{clip-path:url(#clippath-3);}.cls-24{clip-path:url(#clippath-8);}.cls-25{clip-path:url(#clippath-18);}.cls-26{clip-path:url(#clippath-14);}.cls-27{clip-path:url(#clippath-17);}.cls-28{clip-path:url(#clippath-5);}.cls-29{clip-path:url(#clippath-10);}</style><clipPath id="clippath"><path class="cls-20" d="M5.25,34.93H24.8c4.67,0,7.01-5.65,3.71-8.95L8.95,6.42C5.65,3.12,0,5.46,0,10.13V29.69C0,32.58,2.35,34.93,5.25,34.93"/></clipPath><clipPath id="clippath-1"><path class="cls-20" d="M35.79,20.04c0,4.71-3.82,8.53-8.53,8.53H11.56c-2.88-.04-5.2-2.39-5.2-5.27V13.48C6.51,6.02,12.62,0,20.13,0c2.98,0,5.75,.96,8,2.57,.15,.09,.28,.2,.42,.29,.1,.07,.18,.15,.27,.22,.03,.03,.05,.05,.07,.06,1.3,1.18,2.12,2.87,2.12,4.75,0,1.49-.51,2.87-1.36,3.95,1.68,.49,3.15,1.48,4.23,2.81,1.2,1.46,1.91,3.33,1.91,5.38"/></clipPath><clipPath id="clippath-2"><rect class="cls-21" x="6.36" y="0" width="29.43" height="28.57"/></clipPath><clipPath id="clippath-3"><path class="cls-20" d="M29.83,28.17c-.24-.78-.67-1.54-1.33-2.2L8.95,6.43c-.1-.09-.2-.18-.29-.27-1.4,2.11-2.25,4.62-2.3,7.33v9.82c0,2.88,2.32,5.23,5.2,5.27h15.7c.9,0,1.76-.14,2.57-.4"/></clipPath><clipPath id="clippath-4"><path class="cls-20" d="M46.93,7.77h10.04c3.46,0,7.03,1.15,7.03,5.74,0,1.28-.7,2.89-1.83,3.62,1.99,.64,3.59,2.34,3.59,5.17,0,4.59-3.91,6.26-8.37,6.26h-10.46V7.77Zm9.5,8.12c1.41,0,1.86-.54,1.86-1.41,0-.96-.45-1.54-1.86-1.54h-3.4v2.95h3.4Zm.8,7.51c1.19,0,2.18-.22,2.18-1.48s-.99-1.48-2.18-1.48h-4.2v2.95h4.2Z"/></clipPath><clipPath id="clippath-5"><rect class="cls-21" y="0" width="200" height="34.93"/></clipPath><clipPath id="clippath-6"><rect class="cls-21" x="68" y="4.07" width="132" height="25"/></clipPath><clipPath id="clippath-7"><path class="cls-20" d="M68.01,7.61c0-1.83,1.51-3.34,3.3-3.34s3.37,1.51,3.37,3.34-1.51,3.3-3.37,3.3-3.3-1.51-3.3-3.3Zm.42,20.95h5.84V12.17h-5.84V28.56Z"/></clipPath><clipPath id="clippath-8"><rect class="cls-21" y=".07" width="200" height="35"/></clipPath><clipPath id="clippath-9"><path class="cls-20" d="M78.5,23.27v-6.48h-2.41v-4.62h2.41v-2.95l5.84-1.44v4.4h3.63v4.62h-3.63v6.03c0,.77,.38,1.03,.9,1.03,.48,0,1.06-.22,1.48-.51l1.57,4.27c-1.41,.99-3.14,1.28-4.59,1.28-3.14,0-5.2-2.02-5.2-5.61"/></clipPath><clipPath id="clippath-10"><rect class="cls-21" y=".07" width="200" height="35"/></clipPath><clipPath id="clippath-11"><path class="cls-20" d="M90.15,12.17h5.52v1.8c1.22-1.38,3.11-2.12,4.94-2.12,2.63,0,4.04,1.06,4.81,2.54,1.41-2.05,3.59-2.54,5.23-2.54,5.29,0,5.74,4.27,5.74,7.57v9.14h-5.84v-8.47c0-1.96-.55-2.86-1.83-2.86-1.73,0-2.53,1.57-2.53,3.59v7.73h-5.84v-8.47c0-1.96-.55-2.86-1.83-2.86-1.73,0-2.54,1.57-2.54,3.59v7.73h-5.84V12.17Z"/></clipPath><clipPath id="clippath-12"><rect class="cls-21" y=".07" width="200" height="35"/></clipPath><clipPath id="clippath-13"><path class="cls-20" d="M118.8,20.38c0-4.75,2.47-8.53,7.03-8.53,1.32,0,3.5,.45,4.46,2.15v-1.83h5.52V28.56h-5.52v-1.83c-.9,1.67-3.14,2.15-4.46,2.15-4.56,0-7.03-3.79-7.03-8.5m11.2,0c0-1.96-1.09-3.4-2.63-3.4s-2.63,1.44-2.63,3.4,1.09,3.37,2.63,3.37,2.63-1.38,2.63-3.37"/></clipPath><clipPath id="clippath-14"><rect class="cls-21" y=".07" width="200" height="35"/></clipPath><clipPath id="clippath-15"><path class="cls-20" d="M138.69,12.17h5.68v2.92c.09-.71,1.51-3.24,5.36-3.24v6.35c-4.24,0-5.2,1.77-5.2,4.85v5.52h-5.84V12.17Z"/></clipPath><clipPath id="clippath-16"><rect class="cls-21" y=".07" width="200" height="35"/></clipPath><clipPath id="clippath-17"><polygon class="cls-20" points="151.97 7.45 157.81 7.45 157.81 17.49 161.79 12.17 168.75 12.17 162.53 19.32 169.68 28.56 162.75 28.56 158.77 23.17 157.81 24.33 157.81 28.56 151.97 28.56 151.97 7.45"/></clipPath><clipPath id="clippath-18"><rect class="cls-21" y=".07" width="200" height="35"/></clipPath><clipPath id="clippath-19"><path class="cls-20" d="M169.55,20.38c0-4.75,3.69-8.54,8.53-8.54s8.21,3.79,8.21,8.54c0,.99-.13,1.89-.13,1.89h-10.88c.48,1.54,1.93,2.12,3.5,2.12,1.38,0,2.86-.42,3.88-.99l1.96,3.95c-1.83,1.12-3.85,1.54-5.87,1.54-4.97,0-9.21-3.11-9.21-8.5Zm11.42-1.41c-.19-1.51-1.38-2.54-2.89-2.54s-2.6,1.03-2.95,2.54h5.84Z"/></clipPath><clipPath id="clippath-20"><rect class="cls-21" y=".07" width="200" height="35"/></clipPath><clipPath id="clippath-21"><path class="cls-20" d="M190.21,23.27v-6.48h-2.41v-4.62h2.41v-2.95l5.84-1.44v4.4h3.63v4.62h-3.63v6.03c0,.77,.38,1.03,.9,1.03,.48,0,1.06-.22,1.48-.51l1.57,4.27c-1.41,.99-3.14,1.28-4.59,1.28-3.14,0-5.2-2.02-5.2-5.61"/></clipPath><clipPath id="clippath-22"><rect class="cls-21" y=".07" width="200" height="35"/></clipPath></defs><g id="_이어_1-2"><g><g class="cls-19"><rect class="cls-4" x="-1" y="2.12" width="33.81" height="33.81"/></g><g class="cls-12"><g class="cls-5"><rect class="cls-16" x="5.36" y="-.93" width="31.43" height="30.5"/></g></g><g class="cls-23"><rect class="cls-14" x="5.36" y="5.15" width="25.47" height="24.42"/></g><g class="cls-13"><rect class="cls-16" x="45.93" y="6.77" width="20.83" height="22.79"/></g><g class="cls-28"><g class="cls-7"><g class="cls-9"><g class="cls-10"><g class="cls-24"><rect class="cls-16" x="67.01" y="3.27" width="8.67" height="26.29"/></g></g><g class="cls-18"><g class="cls-29"><rect class="cls-16" x="75.1" y="6.77" width="14.19" height="23.11"/></g></g><g class="cls-2"><g class="cls-15"><rect class="cls-4" x="89.15" y="10.85" width="28.25" height="18.72"/></g></g><g class="cls-6"><g class="cls-26"><rect class="cls-4" x="117.8" y="10.85" width="19.01" height="19.04"/></g></g><g class="cls-8"><g class="cls-3"><rect class="cls-4" x="137.69" y="10.85" width="13.04" height="18.72"/></g></g><g class="cls-27"><g class="cls-25"><rect class="cls-4" x="150.97" y="6.45" width="19.71" height="23.11"/></g></g><g class="cls-22"><g class="cls-1"><rect class="cls-4" x="168.55" y="10.85" width="18.75" height="19.04"/></g></g><g class="cls-11"><g class="cls-17"><rect class="cls-4" x="186.81" y="6.77" width="14.19" height="23.11"/></g></g></g></g></g></g></g></svg>