<?xml version="1.0" encoding="utf-8"?>
<!-- Generator: Adobe Illustrator 26.3.1, SVG Export Plug-In . SVG Version: 6.00 Build 0)  -->
<svg version="1.1" id="레이어_1" xmlns="http://www.w3.org/2000/svg" xmlns:xlink="http://www.w3.org/1999/xlink" x="0px"
	 y="0px" viewBox="0 0 700 700" style="enable-background:new 0 0 700 700;" xml:space="preserve">
<path d="M625.9,378.2c12.4,0,18.7,14.9,10.1,23.8L469.9,571.7c-8.6,8.8-22.8,8.9-31.6,0.3c-8.8-8.6-8.9-22.8-0.3-31.6l114.9-117.5
	l-470,0c-12.1,0-22.5-9.4-22.9-21.5c-0.4-12.7,9.8-23.2,22.4-23.2L625.9,378.2L625.9,378.2z M639.8,300.3
	c-0.4,12.1-10.8,21.5-22.9,21.5H74.1c-12.5,0-18.8-15-10.1-24l166-169.5c8.6-8.8,22.8-8.9,31.6-0.3c8.8,8.6,8.9,22.8,0.3,31.6
	L146.9,277.1h470.5C630.1,277.1,640.3,287.5,639.8,300.3L639.8,300.3z"/>
</svg>
