<?xml version="1.0" encoding="utf-8"?>
<!-- Generator: Adobe Illustrator 26.3.1, SVG Export Plug-In . SVG Version: 6.00 Build 0)  -->
<svg version="1.1" id="레이어_1" xmlns="http://www.w3.org/2000/svg" xmlns:xlink="http://www.w3.org/1999/xlink" x="0px"
	 y="0px" viewBox="0 0 700 700" style="enable-background:new 0 0 700 700;" xml:space="preserve">
<style type="text/css">
	.st0{fill:#0ECB81;}
</style>
<path class="st0" d="M349.9,24.9c-7,0.3-15.2,3.2-20.3,8L162.2,190.6c-9.6,10.7-13.6,31.2-2.5,43.1c10.9,11.8,32.1,11.4,43.1-0.3
	l117.6-110.8v523c0,16.3,13.2,29.6,29.6,29.6s29.6-13.2,29.6-29.6v-523l117.6,110.8c10.1,10.1,32,11.9,43.1,0.3
	c11.1-11.6,7.5-32.9-2.5-43.1L370.3,32.9C364.5,27.6,357.8,24.9,349.9,24.9L349.9,24.9z"/>
</svg>
