<?xml version="1.0" encoding="utf-8"?>
<!-- Generator: Adobe Illustrator 26.3.1, SVG Export Plug-In . SVG Version: 6.00 Build 0)  -->
<svg version="1.1" id="레이어_1" xmlns="http://www.w3.org/2000/svg" xmlns:xlink="http://www.w3.org/1999/xlink" x="0px"
	 y="0px" viewBox="0 0 700 700" style="enable-background:new 0 0 700 700;" xml:space="preserve">
<style type="text/css">
	.st0{fill:#F6465D;}
</style>
<path class="st0" d="M350.1,675.1c7-0.3,15.2-3.2,20.3-8l167.5-157.6c9.6-10.7,13.6-31.2,2.5-43.1c-10.9-11.8-32.1-11.4-43.1,0.3
	L379.6,577.5v-523c0-16.3-13.2-29.6-29.6-29.6s-29.6,13.2-29.6,29.6v523L202.9,466.7c-10.1-10.1-32-11.9-43.1-0.3
	s-7.5,32.9,2.5,43.1l167.5,157.6C335.5,672.4,342.2,675.1,350.1,675.1L350.1,675.1z"/>
</svg>
