<?xml version="1.0" encoding="UTF-8"?><svg id="_이어_2" xmlns="http://www.w3.org/2000/svg" viewBox="0 0 408.95 69.91"><defs><style>.cls-1{fill:#74ffae;}.cls-2{fill:#fff;}.cls-3{fill:#00b897;}</style></defs><g id="_이어_1-2"><g><g><rect class="cls-2" x="131.73" y="7.91" width="6.02" height="49.55"/><path class="cls-2" d="M270.68,46.6c-3.95,4.18-8.62,6.26-14.01,6.26-5.75,0-10.16-1.78-13.24-5.35-3.08-3.57-4.61-8.86-4.61-15.86,0-3.37,.47-6.34,1.41-8.93,.94-2.58,2.22-4.75,3.84-6.5,1.62-1.75,3.52-3.08,5.73-3.97,2.2-.9,4.56-1.35,7.07-1.35,5.43,0,9.9,1.93,13.4,5.79,.22,.23,.43,.32,.61,.27,.18-.04,.27-.22,.27-.54v-6.2c-2.07-1.62-4.29-2.75-6.67-3.4-2.38-.65-5.05-.98-8.02-.98-3.46,0-6.65,.6-9.56,1.79-2.92,1.19-5.45,2.92-7.58,5.19-2.13,2.27-3.8,5.02-4.98,8.25-1.19,3.23-1.79,6.87-1.79,10.91s.52,7.46,1.55,10.64c1.03,3.19,2.55,5.93,4.55,8.22,2,2.29,4.42,4.06,7.27,5.32,2.85,1.26,6.1,1.89,9.73,1.89,3.19,0,6.11-.43,8.76-1.28,2.65-.85,5.03-2.18,7.14-3.97v-5.93c0-.63-.29-.72-.88-.27Z"/><polygon class="cls-2" points="281.98 57.51 313.57 57.51 313.57 52.32 287.91 52.32 287.91 32.11 311.75 32.11 311.75 27.13 287.91 27.13 287.91 11.5 313.57 11.5 313.57 6.45 281.98 6.45 281.98 57.51"/><polygon class="cls-2" points="339.4 6.45 322.02 57.44 328.15 57.44 332.79 42.89 334.55 38.04 342.9 11.03 342.97 11.03 351.79 38.04 353.61 42.89 358.19 57.44 364.32 57.44 346.87 6.45 339.4 6.45"/><polygon class="cls-2" points="403.36 6.45 403.36 45.79 403.43 51.11 401.27 45.92 381.8 6.45 372.71 6.45 372.71 57.44 378.23 57.44 378.23 16.55 378.17 11.23 380.32 16.08 400.6 57.44 408.95 57.44 408.95 6.45 403.36 6.45"/><path class="cls-2" d="M206.3,6.37c-10.72,0-19.43,10.37-19.43,23.12,0,.85,.04,1.74,.13,2.56-.09,.92-.13,1.81-.13,2.66,0,12.75,8.72,23.12,19.43,23.12s19.44-10.37,19.44-23.12c0-.84-.04-1.74-.13-2.56,.09-.92,.13-1.81,.13-2.66,0-12.75-8.72-23.12-19.44-23.12Zm17.3,25.68c-1.06,10.58-8.5,18.56-17.3,18.56s-16.24-7.98-17.3-18.46c1.06-10.58,8.5-18.56,17.3-18.56s16.24,7.98,17.3,18.46Z"/><polygon class="cls-2" points="145.94 13.06 159.78 13.21 159.34 57.43 165.5 57.49 165.93 13.27 180.13 13.43 180.18 8.09 146 7.72 145.94 13.06"/><path class="cls-2" d="M119.13,34.62c-1-1.09-2.2-1.99-3.6-2.7-1.4-.71-2.97-1.18-4.7-1.4v-.13c2.8-.8,5-2.21,6.6-4.24,1.6-2.02,2.4-4.44,2.4-7.24,0-1.56-.31-3.02-.93-4.4-.62-1.38-1.56-2.58-2.8-3.6-1.25-1.02-2.77-1.83-4.57-2.43-1.8-.6-3.88-.9-6.24-.9h-15.88V58.07h16.08c2.85,0,5.32-.42,7.44-1.27,2.11-.85,3.87-1.97,5.27-3.37,1.4-1.4,2.43-2.99,3.1-4.77,.67-1.78,1-3.58,1-5.4s-.28-3.34-.83-4.8c-.56-1.47-1.33-2.75-2.33-3.84Zm-24.61-22.11h9.24c3.29,0,5.76,.58,7.4,1.73,1.64,1.16,3.47,3.07,3.47,5.74,0,3.07-1.95,5.23-3.83,6.47-1.89,1.25-4.46,1.87-7.7,1.87h-8.57V12.51Zm18.48,37.89c-1.89,1.78-4.64,2.67-8.24,2.67h-10.24v-19.88h9.04c4.18,0,7.27,.87,9.27,2.6,2,1.73,4,4.2,4,7.4,0,3.02-1.95,5.43-3.83,7.2Z"/></g><g><circle class="cls-3" cx="34.96" cy="34.96" r="34.96"/><circle class="cls-1" cx="24.95" cy="52.7" r="14.57"/><path class="cls-2" d="M37.51,59.76h-14.57c-1.49,0-2.7-1.21-2.7-2.7V11.41c0-1.49,1.21-2.7,2.7-2.7h14.36c2.38,0,4.48,.3,6.31,.91,1.82,.61,3.36,1.43,4.62,2.46,1.26,1.03,2.2,2.25,2.83,3.64,.63,1.39,.54,2.88,.54,4.45,0,2.83,0,5.27-1.62,7.32-1.62,2.05-3.03,3.47-5.86,4.28v.13c1.75,.23,2.53,.7,3.94,1.42,1.42,.72,2.22,1.63,3.24,2.73,1.01,1.1,1.39,2.39,1.95,3.88,.56,1.48,.44,3.1,.44,4.86,0,1.84,.07,3.66-.61,5.46-.67,1.8-1.31,3.41-2.73,4.82-1.42,1.42-3.19,2.55-5.33,3.41-2.14,.85-4.64,1.28-7.52,1.28Zm-1.75-46.06h-6.88c-1.49,0-2.7,1.21-2.7,2.7v10.59c0,1.49,1.21,2.7,2.7,2.7h6.2c3.28,0,5.88-.63,7.79-1.89,1.91-1.26,2.87-3.44,2.87-6.54,0-2.7-.83-4.63-2.5-5.8-1.66-1.17-4.16-1.75-7.49-1.75Zm-.2,20.91h-6.68c-1.49,0-2.7,1.21-2.7,2.7v14.7c0,1.49,1.21,2.7,2.7,2.7h7.89c3.64,0,6.42-.9,8.33-2.7,1.91-1.8,2.87-4.23,2.87-7.28,0-3.24-1.01-5.73-3.03-7.49-2.02-1.75-5.15-2.63-9.37-2.63Z"/></g></g></g></svg>