<?xml version="1.0" encoding="UTF-8"?><svg xmlns="http://www.w3.org/2000/svg" viewBox="0 0 1147.91 818.53"><defs><style>.cls-1{fill:#2b1710;}.cls-2{fill:#b84e2c;}.cls-3{fill:#5c5c5c;mix-blend-mode:screen;}.cls-4{fill:#fff;}.cls-5{fill:#f06852;}.cls-6{fill:#4b5f91;}.cls-7{fill:#a6c9de;}.cls-8{fill:#4f2719;}.cls-9,.cls-10{fill:#bcc7d1;}.cls-9,.cls-11,.cls-12,.cls-13,.cls-14,.cls-15{mix-blend-mode:multiply;}.cls-16{isolation:isolate;}.cls-17{fill:#611616;}.cls-18{fill:#6397cf;}.cls-19{fill:#941826;}.cls-20{fill:#a4c7e8;}.cls-21{fill:#bcd7e8;}.cls-22{fill:#ff9991;}.cls-11{fill:#e0b3a8;}.cls-23{fill:#471010;}.cls-24{fill:#566da6;}.cls-12{fill:#dde2e6;}.cls-25{fill:#e3f8ff;}.cls-26{fill:#e2eff7;}.cls-27{fill:#f26d63;}.cls-13{fill:#d1d1d1;}.cls-28{fill:#97c8fc;}.cls-29{fill:#ccc;}.cls-14{fill:#e6e6e6;}.cls-30{fill:#fffaf0;}.cls-31{fill:#b3d1e3;}.cls-32{fill:#ff8762;}.cls-33{fill:#c75a37;}.cls-34{fill:#fbe7c4;}.cls-35{fill:#85bcf7;}.cls-36{fill:#e33944;}.cls-37{fill:#3b4b73;}</style></defs><g class="cls-16"><g id="_이어_2"><g id="_이어_1-2"><g><path class="cls-26" d="M719.5,6.38C363.38-37.05,172.28,145.36,165.33,425.05,35.04,503.23-11.86,649.15,101.06,791.6l946.78-1.74C1231.98,496.28,1075.63,49.81,719.5,6.38Z"/><g><path class="cls-20" d="M946.39,67.73h-19.47c-.32,0-.58-.26-.58-.58v-19.47c0-.32,.26-.58,.58-.58h19.47c.32,0,.58,.26,.58,.58v19.47c0,.32-.26,.58-.58,.58Zm-18.89-1.17h18.31v-18.31h-18.31v18.31Z"/><path class="cls-20" d="M946.39,115.55h-19.47c-.32,0-.58-.26-.58-.58v-19.47c0-.32,.26-.58,.58-.58h19.47c.32,0,.58,.26,.58,.58v19.47c0,.32-.26,.58-.58,.58Zm-18.89-1.17h18.31v-18.31h-18.31v18.31Z"/><path class="cls-20" d="M910.24,115.55h-19.47c-.32,0-.58-.26-.58-.58v-19.47c0-.32,.26-.58,.58-.58h19.47c.32,0,.58,.26,.58,.58v19.47c0,.32-.26,.58-.58,.58Zm-18.89-1.17h18.31v-18.31h-18.31v18.31Z"/><path class="cls-20" d="M982.55,115.55h-19.47c-.32,0-.58-.26-.58-.58v-19.47c0-.32,.26-.58,.58-.58h19.47c.32,0,.58,.26,.58,.58v19.47c0,.32-.26,.58-.58,.58Zm-18.89-1.17h18.31v-18.31h-18.31v18.31Z"/><path class="cls-20" d="M936.35,96.03c-.32,0-.58-.26-.58-.58v-28.3c0-.32,.26-.58,.58-.58s.58,.26,.58,.58v28.3c0,.32-.26,.58-.58,.58Z"/><path class="cls-20" d="M973.02,96.33c-.32,0-.58-.26-.58-.58v-14.63h-71.56v14.33c0,.32-.26,.58-.58,.58s-.58-.26-.58-.58v-14.91c0-.32,.26-.58,.58-.58h72.72c.32,0,.58,.26,.58,.58v15.21c0,.32-.26,.58-.58,.58Z"/></g><g><path class="cls-20" d="M197.34,372.92H113.36c-.32,0-.58-.26-.58-.58v-63.9c0-.32,.26-.58,.58-.58h83.98c.32,0,.58,.26,.58,.58v63.9c0,.32-.26,.58-.58,.58Zm-83.4-1.17h82.82v-62.73H113.94v62.73Z"/><path class="cls-20" d="M199.96,380.22H110.73c-.32,0-.58-.26-.58-.58v-7.3c0-.32,.26-.58,.58-.58h89.23c.32,0,.58,.26,.58,.58v7.3c0,.32-.26,.58-.58,.58Zm-88.65-1.17h88.06v-6.14H111.32v6.14Z"/><path class="cls-20" d="M155.35,392.89c-2.34,0-4.23-1.9-4.23-4.23s1.9-4.23,4.23-4.23,4.24,1.9,4.24,4.23-1.9,4.23-4.24,4.23Zm0-7.3c-1.69,0-3.07,1.38-3.07,3.07s1.38,3.07,3.07,3.07,3.07-1.38,3.07-3.07-1.38-3.07-3.07-3.07Z"/><path class="cls-20" d="M155.35,385.41h0c-.32,0-.58-.26-.58-.59l.02-4.98c0-.32,.25-.63,.59-.58,.32,0,.58,.26,.58,.59l-.02,4.98c0,.32-.26,.58-.58,.58Z"/><path class="cls-20" d="M134.95,366.83h-12.31c-.32,0-.58-.26-.58-.58v-30.22c0-.32,.26-.58,.58-.58h12.31c.32,0,.58,.26,.58,.58v30.22c0,.32-.26,.58-.58,.58Zm-11.73-1.17h11.15v-29.06h-11.15v29.06Z"/><path class="cls-20" d="M159.27,366.83h-12.31c-.32,0-.58-.26-.58-.58v-42.35c0-.32,.26-.58,.58-.58h12.31c.32,0,.58,.26,.58,.58v42.35c0,.32-.26,.58-.58,.58Zm-11.73-1.17h11.15v-41.18h-11.15v41.18Z"/><path class="cls-20" d="M185.01,366.83h-12.31c-.32,0-.58-.26-.58-.58v-51.12c0-.32,.26-.58,.58-.58h12.31c.32,0,.58,.26,.58,.58v51.12c0,.32-.26,.58-.58,.58Zm-11.73-1.17h11.15v-49.95h-11.15v49.95Z"/></g><g><path class="cls-20" d="M24.62,587.81c-13.58,0-24.62-11.05-24.62-24.62s11.02-24.59,24.57-24.62c.12,0,.31,.06,.42,.17,.11,.11,.17,.26,.17,.42l-.28,23.79h23.77c.16,0,.31,.06,.42,.17,.11,.11,.17,.26,.17,.42-.19,13.38-11.23,24.27-24.6,24.27Zm-.64-48.07c-12.63,.34-22.81,10.74-22.81,23.44s10.52,23.46,23.46,23.46,22.93-10.05,23.42-22.53H24.28c-.16,0-.31-.06-.41-.17-.11-.11-.17-.26-.17-.42l.28-23.78Z"/><path class="cls-20" d="M53.21,559.89H28.84c-.16,0-.31-.06-.41-.17-.11-.11-.17-.26-.17-.42l.29-24.38c0-.32,.27-.6,.59-.58,13.63,0,24.67,11.04,24.67,24.62,0,.08,0,.15-.01,.22v.13c-.01,.32-.27,.57-.59,.57Zm-23.77-1.17h23.21c-.13-12.65-10.32-22.93-22.93-23.21l-.28,23.21Z"/></g><g><path class="cls-20" d="M426.36,64.88c-.16,0-.31-.06-.43-.19l-10.58-11.34h-36.63c-2.52,0-4.58-2.05-4.58-4.58V25.27c0-2.52,2.05-4.58,4.58-4.58h43.64c2.52,0,4.58,2.05,4.58,4.58v39.02c0,.24-.15,.45-.37,.54-.07,.03-.14,.04-.21,.04Zm-47.63-43.02c-1.88,0-3.41,1.53-3.41,3.41v23.51c0,1.88,1.53,3.41,3.41,3.41h36.88c.16,0,.32,.07,.43,.19l9.74,10.44V25.27c0-1.88-1.53-3.41-3.41-3.41h-43.64Z"/><path class="cls-20" d="M388.16,40.24c-2.02,0-3.66-1.64-3.66-3.66s1.64-3.66,3.66-3.66,3.66,1.64,3.66,3.66-1.64,3.66-3.66,3.66Zm0-6.16c-1.38,0-2.5,1.12-2.5,2.5s1.12,2.5,2.5,2.5,2.5-1.12,2.5-2.5-1.12-2.5-2.5-2.5Z"/><path class="cls-20" d="M400.99,40.24c-2.02,0-3.66-1.64-3.66-3.66s1.64-3.66,3.66-3.66,3.66,1.64,3.66,3.66-1.64,3.66-3.66,3.66Zm0-6.16c-1.38,0-2.5,1.12-2.5,2.5s1.12,2.5,2.5,2.5,2.5-1.12,2.5-2.5-1.12-2.5-2.5-2.5Z"/><path class="cls-20" d="M413.82,40.24c-2.02,0-3.66-1.64-3.66-3.66s1.64-3.66,3.66-3.66,3.66,1.64,3.66,3.66-1.64,3.66-3.66,3.66Zm0-6.16c-1.38,0-2.5,1.12-2.5,2.5s1.12,2.5,2.5,2.5,2.5-1.12,2.5-2.5-1.12-2.5-2.5-2.5Z"/></g><g><path class="cls-20" d="M793.37,103.04c-17.44,0-31.62-14.18-31.62-31.62s14.18-31.62,31.62-31.62,31.62,14.18,31.62,31.62-14.19,31.62-31.62,31.62Zm0-62.07c-16.79,0-30.45,13.66-30.45,30.45s13.66,30.45,30.45,30.45,30.45-13.66,30.45-30.45-13.66-30.45-30.45-30.45Z"/><path class="cls-20" d="M793.37,103.04c-7.66,0-13.67-13.89-13.67-31.62s6-31.62,13.67-31.62,13.67,13.89,13.67,31.62-6,31.62-13.67,31.62Zm0-62.07c-6.89,0-12.5,13.66-12.5,30.45s5.61,30.45,12.5,30.45,12.5-13.66,12.5-30.45-5.61-30.45-12.5-30.45Z"/><path class="cls-20" d="M793.37,58.26c-9.82,0-18.9-1.9-24.91-5.2-.15-.08-.26-.23-.29-.39-.04-.17,0-.34,.11-.48,6.04-7.88,15.19-12.39,25.1-12.39s19.05,4.52,25.1,12.39c.1,.14,.14,.31,.11,.48-.03,.17-.14,.31-.29,.39-6.02,3.3-15.1,5.2-24.91,5.2Zm-23.75-5.9c5.85,3.01,14.45,4.73,23.75,4.73s17.9-1.72,23.75-4.73c-5.82-7.25-14.44-11.39-23.75-11.39s-17.93,4.14-23.75,11.39Z"/><path class="cls-20" d="M793.37,103.04c-9.49,0-18.4-4.21-24.44-11.56-.11-.14-.16-.32-.12-.49,.04-.17,.15-.32,.31-.4,6.01-3.08,14.85-4.85,24.26-4.85s18.25,1.77,24.26,4.85c.16,.08,.27,.23,.31,.4,.04,.17,0,.35-.12,.49-6.04,7.35-14.94,11.56-24.44,11.56Zm-23.06-11.74c5.8,6.73,14.17,10.57,23.06,10.57s17.26-3.84,23.06-10.57c-5.83-2.8-14.17-4.39-23.06-4.39s-17.24,1.6-23.06,4.39Z"/><path class="cls-20" d="M793.37,103.04c-.32,0-.58-.26-.58-.58V40.38c0-.32,.26-.58,.58-.58s.58,.26,.58,.58v62.07c0,.32-.26,.58-.58,.58Z"/><path class="cls-20" d="M824.4,72h-62.07c-.32,0-.58-.26-.58-.58s.26-.58,.58-.58h62.07c.32,0,.58,.26,.58,.58s-.26,.58-.58,.58Z"/></g><g><path class="cls-20" d="M705.23,133.51h-53.4c-.32,0-.58-.26-.58-.58v-33.78c0-.32,.26-.58,.58-.58h53.4c.32,0,.58,.26,.58,.58v33.78c0,.32-.26,.58-.58,.58Zm-52.82-1.17h52.24v-32.61h-52.24v32.61Z"/><path class="cls-20" d="M678.45,115.4c-.1,0-.2-.03-.3-.08l-26.62-15.67c-.23-.13-.34-.4-.27-.66,.07-.25,.3-.43,.56-.43h53.4c.26,0,.49,.18,.56,.43,.07,.25-.04,.52-.27,.66l-26.78,15.67c-.09,.05-.19,.08-.29,.08Zm-24.48-15.67l24.48,14.41,24.63-14.41h-49.11Z"/></g><g><path class="cls-20" d="M362.59,167.62h-52.94c-.32,0-.58-.26-.58-.58v-37.12c0-.32,.26-.58,.58-.58h52.94c.32,0,.58,.26,.58,.58v37.12c0,.32-.26,.58-.58,.58Zm-52.36-1.17h51.78v-35.96h-51.78v35.96Z"/><path class="cls-20" d="M362.59,146.47h-22.29c-.32,0-.58-.26-.58-.58s.26-.58,.58-.58h21.71v-14.81h-51.78v14.81h22.09c.32,0,.58,.26,.58,.58s-.26,.58-.58,.58h-22.67c-.32,0-.58-.26-.58-.58v-15.97c0-.32,.26-.58,.58-.58h52.94c.32,0,.58,.26,.58,.58v15.97c0,.32-.26,.58-.58,.58Z"/><path class="cls-20" d="M339.2,152.03h-5.82c-.32,0-.58-.26-.58-.58v-9.93c0-.32,.26-.58,.58-.58h5.82c.32,0,.58,.26,.58,.58v9.93c0,.32-.26,.58-.58,.58Zm-5.24-1.17h4.65v-8.76h-4.65v8.76Z"/><path class="cls-20" d="M322.77,130.27h-8.1c-.32,0-.58-.26-.58-.58v-2.97c0-.32,.26-.58,.58-.58h8.1c.32,0,.58,.26,.58,.58v2.97c0,.32-.26,.58-.58,.58Zm-7.52-1.17h6.94v-1.8h-6.94v1.8Z"/><path class="cls-20" d="M357.76,130.27h-8.1c-.32,0-.58-.26-.58-.58v-2.97c0-.32,.26-.58,.58-.58h8.1c.32,0,.58,.26,.58,.58v2.97c0,.32-.26,.58-.58,.58Zm-7.52-1.17h6.94v-1.8h-6.94v1.8Z"/><path class="cls-20" d="M351.58,125.82c-.32,0-.58-.26-.58-.58v-7.25c0-1.85-1.5-3.35-3.35-3.35h-23.05c-1.85,0-3.35,1.5-3.35,3.35v7.25c0,.32-.26,.58-.58,.58s-.58-.26-.58-.58v-7.25c0-2.49,2.03-4.52,4.52-4.52h23.05c2.49,0,4.52,2.03,4.52,4.52v7.25c0,.32-.26,.58-.58,.58Z"/></g><g><path class="cls-20" d="M549.65,117.42h-46.25c-.32,0-.58-.26-.58-.58V57.2c0-.32,.26-.58,.58-.58h36.13c.15,0,.29,.06,.4,.15l10.12,9.36c.12,.11,.19,.27,.19,.43v50.28c0,.32-.26,.58-.58,.58Zm-45.67-1.17h45.08v-49.44l-9.76-9.03h-35.32v58.47Z"/><path class="cls-20" d="M549.65,67.14h0l-10-.11c-.32,0-.57-.26-.58-.58l-.11-9.24c0-.32,.25-.59,.58-.59,.36-.01,.59,.25,.59,.58l.11,8.67,9.43,.11c.32,0,.58,.27,.58,.59,0,.32-.26,.58-.58,.58Z"/><path class="cls-20" d="M525.05,66.45h-17.57c-.32,0-.58-.26-.58-.58s.26-.58,.58-.58h17.57c.32,0,.58,.26,.58,.58s-.26,.58-.58,.58Z"/><path class="cls-20" d="M543.71,74.62h-36.24c-.32,0-.58-.26-.58-.58s.26-.58,.58-.58h36.24c.32,0,.58,.26,.58,.58s-.26,.58-.58,.58Z"/><path class="cls-20" d="M543.71,87.45h-36.24c-.32,0-.58-.26-.58-.58s.26-.58,.58-.58h36.24c.32,0,.58,.26,.58,.58s-.26,.58-.58,.58Z"/><path class="cls-20" d="M543.71,100.28h-36.24c-.32,0-.58-.26-.58-.58s.26-.58,.58-.58h36.24c.32,0,.58,.26,.58,.58s-.26,.58-.58,.58Z"/></g><g><path class="cls-20" d="M1034.37,206.86h-7.61c-.32,0-.58-.26-.58-.58v-4.47c-2.72-.65-5.25-1.8-7.54-3.41l-3.36,3.36c-.23,.23-.6,.23-.82,0l-5.38-5.38c-.23-.23-.23-.6,0-.82l3.54-3.54c-1.41-2.27-2.39-4.74-2.9-7.36h-5.16c-.32,0-.58-.26-.58-.58v-7.61c0-.32,.26-.58,.58-.58h5.21c.54-2.59,1.53-5.02,2.95-7.26l-3.64-3.64c-.23-.23-.23-.6,0-.82l5.38-5.38c.22-.22,.61-.22,.82,0l3.51,3.51c2.25-1.56,4.73-2.67,7.39-3.31v-4.72c0-.32,.26-.58,.58-.58h7.61c.32,0,.58,.26,.58,.58v4.41c2.85,.47,5.54,1.48,7.99,3.01l2.91-2.91c.22-.22,.61-.22,.82,0l5.38,5.38c.11,.11,.17,.26,.17,.41s-.06,.3-.17,.41l-2.73,2.73c1.72,2.45,2.95,5.25,3.56,8.17h3.69c.32,0,.58,.26,.58,.58v7.61c0,.32-.26,.58-.58,.58h-3.64c-.58,2.95-1.78,5.8-3.5,8.28l2.63,2.63c.11,.11,.17,.26,.17,.41s-.06,.3-.17,.41l-5.38,5.38c-.22,.22-.61,.22-.82,0l-2.75-2.75c-2.5,1.58-5.23,2.63-8.15,3.11v4.16c0,.32-.26,.58-.58,.58Zm-7.03-1.17h6.45v-4.07c0-.29,.21-.54,.5-.58,3.09-.44,5.97-1.54,8.57-3.27,.23-.15,.54-.12,.74,.07l2.67,2.67,4.56-4.56-2.56-2.56c-.2-.2-.23-.52-.06-.76,1.87-2.56,3.14-5.57,3.68-8.68,.05-.28,.29-.48,.57-.48h3.54v-6.45h-3.59c-.28,0-.52-.2-.57-.48-.57-3.08-1.86-6.05-3.74-8.58-.17-.23-.15-.56,.06-.76l2.67-2.67-4.56-4.56-2.83,2.83c-.2,.2-.5,.23-.73,.08-2.56-1.67-5.4-2.74-8.42-3.17-.29-.04-.5-.29-.5-.58v-4.33h-6.45v4.6c0,.27-.19,.51-.46,.57-2.83,.61-5.46,1.79-7.82,3.51-.23,.17-.55,.14-.76-.06l-3.45-3.45-4.56,4.56,3.56,3.56c.2,.2,.23,.5,.07,.74-1.56,2.35-2.61,4.94-3.12,7.7-.05,.28-.29,.48-.57,.48h-5.11v6.45h5.06c.28,0,.53,.2,.57,.48,.48,2.8,1.52,5.42,3.07,7.8,.15,.23,.12,.54-.08,.73l-3.46,3.46,4.56,4.56,3.3-3.3c.2-.2,.53-.23,.76-.06,2.39,1.77,5.07,2.98,7.96,3.61,.27,.06,.46,.3,.46,.57v4.35Zm3.99-12.12c-7.27,0-13.18-5.91-13.18-13.18s5.91-13.18,13.18-13.18c6.51,0,11.98,4.66,13.01,11.08v4.11c-.39,2.54-1.47,4.83-3.12,6.7l-1.15,1.15-.03,.02c-2.41,2.12-5.5,3.29-8.71,3.29Zm0-25.2c-6.63,0-12.02,5.39-12.02,12.02s5.39,12.02,12.02,12.02c2.92,0,5.73-1.06,7.93-2.99l1.11-1.11c1.48-1.68,2.46-3.76,2.82-5.99v-3.93c-.94-5.76-5.93-10.01-11.86-10.01Zm8.32,21.47h0Z"/><path class="cls-20" d="M994.06,206.84c-.09,0-.19-.02-.27-.07-.14-.07-.24-.2-.29-.34l-1.15-3.7c-.85-.01-1.73-.11-2.57-.34l-1.85,3.52c-.07,.14-.2,.24-.34,.29-.15,.05-.31,.03-.44-.04l-3.49-1.84c-.28-.15-.39-.5-.24-.79l1.93-3.67c-.58-.56-1.08-1.19-1.5-1.87l-4.01,1.25c-.15,.05-.31,.03-.44-.04-.14-.07-.24-.2-.29-.34l-1.17-3.77c-.1-.31,.08-.63,.38-.73l4.05-1.26c-.03-.79,.04-1.58,.19-2.35l-3.73-1.96c-.28-.15-.39-.5-.24-.79l1.84-3.49c.07-.14,.2-.24,.34-.29,.15-.05,.31-.03,.44,.04l3.62,1.91c.55-.63,1.18-1.19,1.87-1.66l-1.19-3.82c-.05-.15-.03-.31,.04-.44,.07-.14,.2-.24,.34-.29l3.77-1.17c.15-.05,.31-.03,.44,.04,.14,.07,.24,.2,.29,.34l1.13,3.63c.92-.08,1.83-.03,2.73,.15l1.72-3.26c.07-.14,.2-.24,.34-.29,.15-.05,.31-.03,.44,.04l3.49,1.84c.28,.15,.39,.5,.24,.79l-1.64,3.11c.75,.64,1.39,1.38,1.92,2.21l3.3-1.02c.15-.05,.31-.03,.44,.04,.14,.07,.24,.2,.29,.34l1.17,3.77c.1,.31-.08,.63-.38,.73l-3.26,1.01c.05,1-.05,1.99-.3,2.96l3.05,1.6c.28,.15,.39,.5,.24,.79l-1.84,3.49c-.15,.29-.5,.39-.79,.24l-3.16-1.66c-.66,.68-1.41,1.27-2.23,1.74l1.09,3.5c.1,.31-.08,.63-.38,.73l-3.77,1.17c-.06,.02-.12,.03-.17,.03Zm-1.28-5.29c.25,0,.48,.17,.56,.41l1.11,3.56,2.65-.82-1.06-3.4c-.08-.27,.04-.56,.29-.69,1.01-.51,1.89-1.2,2.63-2.04,.18-.2,.47-.26,.71-.13l3.04,1.6,1.29-2.46-2.95-1.55c-.25-.13-.37-.42-.29-.69,.35-1.12,.46-2.28,.35-3.44-.03-.28,.14-.53,.41-.61l3.15-.98-.82-2.65-3.17,.99c-.26,.08-.54-.03-.68-.27-.57-1-1.33-1.87-2.25-2.58-.22-.17-.29-.48-.16-.73l1.59-3.02-2.46-1.29-1.65,3.14c-.12,.24-.39,.36-.65,.3-1.06-.26-2.15-.32-3.24-.17-.28,.04-.55-.13-.63-.41l-1.1-3.53-2.66,.82,1.15,3.69c.08,.25-.02,.53-.25,.67-.86,.54-1.62,1.21-2.26,2.02-.17,.22-.48,.29-.73,.15l-3.52-1.85-1.29,2.46,3.61,1.9c.24,.13,.36,.4,.29,.66-.24,.94-.32,1.91-.24,2.89,.02,.27-.15,.52-.41,.61l-3.93,1.22,.82,2.65,3.9-1.21c.27-.08,.55,.03,.68,.27,.48,.86,1.09,1.63,1.83,2.29,.2,.18,.25,.47,.13,.71l-1.87,3.55,2.46,1.29,1.8-3.43c.13-.25,.42-.37,.69-.28,1.01,.32,2.05,.46,3.09,.41h.03Zm-.45-4.79c-.64,0-1.28-.16-1.87-.46-.95-.5-1.65-1.34-1.97-2.37-.32-1.03-.22-2.12,.28-3.07,.5-.95,1.34-1.65,2.37-1.97,2.12-.66,4.38,.53,5.04,2.65,.32,1.03,.22,2.12-.28,3.07-.5,.95-1.34,1.65-2.37,1.97h0c-.39,.12-.8,.18-1.2,.18Zm0-6.89c-.28,0-.57,.04-.85,.13-.73,.23-1.33,.72-1.68,1.4-.36,.68-.43,1.45-.2,2.18,.23,.73,.72,1.33,1.4,1.68,.68,.36,1.45,.43,2.18,.2h0c.73-.23,1.33-.72,1.68-1.4,.36-.68,.43-1.45,.2-2.18-.38-1.23-1.51-2.01-2.73-2.01Z"/></g><g><path class="cls-20" d="M1097.61,378.16c-5.33,0-9.66,4.32-9.66,9.66s4.32,9.66,9.66,9.66,9.66-4.32,9.66-9.66-4.32-9.66-9.66-9.66Zm0,15.8c-3.39,0-6.14-2.75-6.14-6.14s2.75-6.14,6.14-6.14,6.14,2.75,6.14,6.14-2.75,6.14-6.14,6.14Z"/><path class="cls-20" d="M1097.61,428.07c-5.33,0-9.66,4.32-9.66,9.66s4.32,9.66,9.66,9.66,9.66-4.32,9.66-9.66-4.32-9.66-9.66-9.66Zm0,15.8c-3.39,0-6.14-2.75-6.14-6.14s2.75-6.14,6.14-6.14,6.14,2.75,6.14,6.14-2.75,6.14-6.14,6.14Z"/><path class="cls-20" d="M1097.61,477.97c-5.33,0-9.66,4.32-9.66,9.66s4.32,9.66,9.66,9.66,9.66-4.32,9.66-9.66-4.32-9.66-9.66-9.66Zm0,15.8c-3.39,0-6.14-2.75-6.14-6.14s2.75-6.14,6.14-6.14,6.14,2.75,6.14,6.14-2.75,6.14-6.14,6.14Z"/><path class="cls-20" d="M1038.54,530.39h-3.22v-136.69c0-3.09,2.51-5.6,5.6-5.6h48.5v3.22h-48.5c-1.31,0-2.38,1.07-2.38,2.38v136.69Z"/><rect class="cls-20" x="1036.51" y="435.55" width="53.33" height="3.22"/><rect class="cls-20" x="1036.3" y="485.74" width="53.33" height="3.22"/></g><g><path class="cls-7" d="M1045.66,419.19c56.99,107.36,6.63,310-87.65,383.84l-50.8-1.31c-26.42-130.59-14.73-323.81,138.45-382.53Z"/><path class="cls-12" d="M922.63,626.17c-.39-1.02,.13-2.15,1.14-2.54,1.02-.39,2.15,.13,2.54,1.14l21.29,56.22c11.5-46.66,28.45-104.49,52.52-164.01-.02-.07-.06-.13-.08-.2l-8.22-41.07c-.21-1.07,.48-2.1,1.54-2.32,1.07-.21,2.1,.48,2.32,1.54l7.11,35.51c10.22-24.78,21.67-49.79,34.5-74.35,.5-.96,1.69-1.34,2.66-.83,.96,.5,1.34,1.69,.83,2.66-26.15,50.07-46.6,102.01-62.41,150.02l45.08-11.62c1.06-.27,2.13,.36,2.4,1.42,.27,1.05-.36,2.13-1.42,2.4l-47.51,12.24c-34.59,106.42-46.25,192.42-46.42,193.68-.13,1.01-1.01,1.74-2,1.71-.07,0-.14,0-.21-.02-1.08-.14-1.84-1.13-1.7-2.21,.11-.84,5.42-39.98,19.38-97.9-.08-.12-.16-.24-.21-.38l-23.14-61.1Z"/></g><g><path class="cls-21" d="M1138.42,626.3c2.1,73.44-79.5,169.72-150.36,184.45l-27.17-14.32c20.69-77.83,78.81-179.37,177.53-170.12Z"/><path class="cls-12" d="M1016.29,705.45c.06-.65,.65-1.13,1.3-1.07,.65,.06,1.13,.65,1.07,1.3l-3.53,36.16c18.74-22.2,43.42-48.98,72.41-74.77,0-.04,0-.09,.01-.13l6.55-24.45c.17-.64,.82-1.01,1.46-.84,.64,.17,1.01,.82,.84,1.46l-5.66,21.14c12.18-10.68,25.09-21.16,38.62-31.03,.53-.39,1.28-.27,1.66,.26,.39,.53,.27,1.28-.26,1.66-27.58,20.12-52.59,42.77-74.02,64.54l27.53,5.79c.64,.14,1.06,.77,.92,1.41-.14,.64-.77,1.05-1.41,.92l-29.02-6.1c-47.26,48.38-76.63,91.85-77.06,92.48-.34,.51-1.01,.67-1.54,.39-.04-.02-.07-.04-.11-.07-.55-.37-.69-1.11-.33-1.65,.29-.43,13.65-20.21,36.74-47.84-.01-.09-.02-.17-.01-.26l3.84-39.3Z"/></g><g><g><g><rect class="cls-9" x="406.96" y="185.05" width="551.98" height="416.49" rx="18.78" ry="18.78"/><rect class="cls-4" x="386.56" y="161.94" width="551.98" height="416.49" rx="18.78" ry="18.78"/><path class="cls-6" d="M908.43,161.94H416.67c-16.63,0-30.11,13.48-30.11,30.11v35.13H938.54v-35.13c0-16.63-13.48-30.11-30.11-30.11Z"/><path class="cls-25" d="M426.39,196.75c0,5.2-4.21,9.41-9.41,9.41s-9.41-4.21-9.41-9.41,4.21-9.41,9.41-9.41,9.41,4.21,9.41,9.41Z"/><path class="cls-25" d="M460.06,196.75c0,5.2-4.21,9.41-9.41,9.41s-9.41-4.21-9.41-9.41,4.21-9.41,9.41-9.41,9.41,4.21,9.41,9.41Z"/><path class="cls-25" d="M493.72,196.75c0,5.2-4.21,9.41-9.41,9.41s-9.41-4.21-9.41-9.41,4.21-9.41,9.41-9.41,9.41,4.21,9.41,9.41Z"/></g><path class="cls-18" d="M1147.91,269.14l-73.59-29.18,13.58,22.83c-36.53,.69-61.46,1.88-74.13,3.54-31.2,4.07-74.32,38.74-128.15,103.04-21.72,25.95-44.73,39.52-70.34,41.49-34.58,2.66-73.71-15.6-119.6-55.85-41.76-36.62-88.39-54.33-134.81-51.19-45.91,3.1-90.36,26.82-125.17,66.81-2.52,2.9-2.22,7.28,.68,9.8,2.89,2.52,7.28,2.22,9.8-.68,32.36-37.18,73.42-59.22,115.62-62.07,42.67-2.88,85.79,13.64,124.72,47.78,45.62,40.01,85.67,59.56,122.12,59.56,2.59,0,5.16-.1,7.71-.3,29.53-2.28,55.68-17.46,79.93-46.43,64.18-76.66,100.29-95.7,119.29-98.18,11.99-1.56,36.97-2.74,72.49-3.42l-13.13,23.15,72.97-30.7Z"/><rect class="cls-12" x="412.7" y="250.33" width="7.25" height="296.38"/><rect class="cls-12" x="571.31" y="287.79" width="7.25" height="261.64"/><rect class="cls-12" x="816.26" y="392.03" width="7.25" height="157.41"/><rect class="cls-12" x="650.85" y="276.61" width="7.25" height="504.85" transform="translate(1183.51 -125.43) rotate(90)"/></g><circle class="cls-35" cx="574.03" cy="312.42" r="19.94"/><circle class="cls-35" cx="820.79" cy="417.78" r="19.94"/></g><g><path class="cls-7" d="M95.97,418.84c-48.19,116.98-11.6,302.13,93.53,369.09l88.53,13.2c14.18-137.96-17.45-336.94-182.06-382.3Z"/><path class="cls-12" d="M244.34,620.84c.3-1.09-.35-2.22-1.44-2.52-1.09-.3-2.22,.35-2.52,1.44l-16.38,60.39c-16.63-47.18-40.03-105.37-70.98-164.6,.02-.08,.05-.14,.06-.22l4.37-43.37c.11-1.13-.71-2.13-1.83-2.25-1.13-.11-2.13,.71-2.25,1.83l-3.78,37.5c-13.09-24.64-27.48-49.39-43.25-73.53-.62-.95-1.89-1.22-2.84-.6-.95,.62-1.21,1.89-.6,2.84,32.14,49.23,58.58,100.97,79.81,149.11l-47.87-7.48c-1.12-.18-2.17,.59-2.34,1.71-.17,1.12,.59,2.17,1.71,2.34l50.46,7.88c46.58,106.75,67.35,194.67,67.65,195.95,.24,1.03,1.22,1.7,2.24,1.57,.07,0,.14-.02,.22-.04,1.1-.26,1.79-1.36,1.53-2.46-.2-.86-9.65-40.87-29.97-99.46,.07-.13,.14-.26,.18-.41l17.8-65.63Z"/></g><g><path class="cls-21" d="M11.8,621.54c-2.1,73.44,79.5,169.72,150.36,184.45l27.17-14.32c-20.69-77.83-78.81-179.37-177.53-170.12Z"/><path class="cls-12" d="M133.93,700.69c-.06-.65-.65-1.13-1.3-1.07-.65,.06-1.13,.65-1.07,1.3l3.53,36.16c-18.74-22.2-43.42-48.98-72.41-74.77,0-.04,0-.09-.01-.13l-6.55-24.45c-.17-.64-.82-1.01-1.46-.84-.64,.17-1.01,.82-.84,1.46l5.66,21.14c-12.18-10.68-25.09-21.16-38.62-31.03-.53-.39-1.28-.27-1.66,.26-.39,.53-.27,1.28,.26,1.66,27.58,20.12,52.59,42.77,74.02,64.54l-27.53,5.79c-.64,.14-1.05,.77-.92,1.41,.14,.64,.77,1.05,1.41,.92l29.02-6.1c47.26,48.38,76.63,91.85,77.06,92.48,.34,.51,1.01,.67,1.54,.39,.04-.02,.07-.04,.11-.07,.55-.37,.69-1.11,.33-1.65-.29-.43-13.65-20.21-36.74-47.84,.01-.09,.02-.17,.01-.26l-3.84-39.3Z"/></g><g><path class="cls-9" d="M601.1,769.91H279.75c-11.19,0-20.57-8.46-21.72-19.59l-30.23-292.59c-1.33-12.88,8.77-24.08,21.72-24.08h321.36c11.19,0,20.57,8.46,21.72,19.59l30.23,292.59c1.33,12.88-8.77,24.08-21.72,24.08Z"/><polygon class="cls-18" points="550.09 782.14 184.82 782.14 202.19 445.88 567.46 445.88 550.09 782.14"/><polygon class="cls-25" points="602.2 782.14 236.94 782.14 202.19 445.88 567.46 445.88 602.2 782.14"/><path class="cls-6" d="M244.34,421.9c-13.16,0-23.87,10.71-23.87,23.87h6.95c0-9.33,7.59-16.92,16.92-16.92s16.92,7.59,16.92,16.92-7.59,16.92-16.92,16.92c-1.92,0-3.47,1.56-3.47,3.47s1.56,3.47,3.47,3.47c13.16,0,23.87-10.71,23.87-23.87s-10.71-23.87-23.87-23.87Z"/><path class="cls-6" d="M332.94,421.9c-13.16,0-23.87,10.71-23.87,23.87h6.95c0-9.33,7.59-16.92,16.92-16.92s16.92,7.59,16.92,16.92-7.59,16.92-16.92,16.92c-1.92,0-3.47,1.56-3.47,3.47s1.56,3.47,3.47,3.47c13.16,0,23.87-10.71,23.87-23.87s-10.71-23.87-23.87-23.87Z"/><path class="cls-6" d="M421.53,421.9c-13.16,0-23.87,10.71-23.87,23.87h6.95c0-9.33,7.59-16.92,16.92-16.92s16.92,7.59,16.92,16.92-7.59,16.92-16.92,16.92c-1.92,0-3.47,1.56-3.47,3.47s1.56,3.47,3.47,3.47c13.16,0,23.87-10.71,23.87-23.87s-10.71-23.87-23.87-23.87Z"/><path class="cls-6" d="M510.13,421.9c-13.16,0-23.87,10.71-23.87,23.87h6.95c0-9.33,7.59-16.92,16.92-16.92s16.92,7.59,16.92,16.92-7.59,16.92-16.92,16.92c-1.92,0-3.47,1.56-3.47,3.47s1.56,3.47,3.47,3.47c13.16,0,23.87-10.71,23.87-23.87s-10.71-23.87-23.87-23.87Z"/><g class="cls-15"><path class="cls-10" d="M545.48,732.14H271.83c-1.78,0-3.27-1.35-3.46-3.12l-21.26-205.71c-.2-1.91,1.19-3.62,3.1-3.81,1.9-.19,3.62,1.19,3.81,3.1l20.93,202.59h270.51c1.92,0,3.47,1.56,3.47,3.47s-1.56,3.47-3.47,3.47Z"/></g><path class="cls-9" d="M412.51,725.76c-.88,0-1.63-.67-1.73-1.56l-14.54-140.71c-.1-.95,.59-1.81,1.55-1.91,.95-.1,1.81,.6,1.91,1.55l14.54,140.71c.1,.95-.59,1.81-1.55,1.91-.06,0-.12,0-.18,0Z"/><path class="cls-9" d="M501.1,725.76c-.88,0-1.63-.67-1.73-1.56l-21.26-205.71c-.1-.95,.59-1.81,1.55-1.91,.95-.1,1.81,.6,1.91,1.55l21.26,205.71c.1,.95-.59,1.81-1.55,1.91-.06,0-.12,0-.18,0Z"/><g class="cls-15"><path class="cls-10" d="M541.67,634.22H268.02c-.96,0-1.74-.78-1.74-1.74s.78-1.74,1.74-1.74h273.65c.96,0,1.74,.78,1.74,1.74s-.78,1.74-1.74,1.74Z"/></g><path class="cls-27" d="M270.85,661.45c-.84,0-1.67-.3-2.34-.91-1.42-1.29-1.52-3.49-.23-4.91l48.94-53.7c.62-.69,1.5-1.09,2.42-1.13,.05,0,.1,0,.15,0,.88,0,1.72,.33,2.36,.93l16.84,15.64,55.44-44.35c.63-.5,1.39-.76,2.17-.76,.42,0,.85,.08,1.26,.24l10.13,3.94,70.45-69.79c.66-.65,1.54-1.01,2.45-1.01,.18,0,.35,.01,.53,.04,1.09,.17,2.03,.84,2.54,1.82l43.17,82.41,15.2-9.01c.56-.33,1.17-.49,1.77-.49,1.19,0,2.34,.61,2.99,1.7,.98,1.65,.43,3.78-1.22,4.76l-18.35,10.88c-.54,.32-1.15,.49-1.77,.49-.32,0-.64-.04-.95-.13-.92-.26-1.69-.89-2.13-1.73l-42.68-81.49-68.71,68.07c-.66,.66-1.55,1.01-2.45,1.01-.42,0-.85-.08-1.26-.24l-10.37-4.03-56.22,44.97c-.64,.51-1.4,.76-2.17,.76-.85,0-1.7-.31-2.37-.93l-16.46-15.29-46.58,51.11c-.69,.75-1.63,1.13-2.57,1.13Z"/><path class="cls-28" d="M411.34,632.59c0,4.76-3.86,8.61-8.61,8.61s-8.61-3.86-8.61-8.61,3.86-8.61,8.61-8.61,8.61,3.86,8.61,8.61Z"/><circle class="cls-28" cx="492.46" cy="632.59" r="8.61"/></g><g><polygon class="cls-22" points="244.15 146.21 214.58 190.72 229.52 190.72 229.52 370.2 258.77 370.2 258.77 190.72 273.72 190.72 244.15 146.21"/><polygon class="cls-27" points="302.27 193.34 239.05 288.51 271 288.51 271 412.23 333.54 412.23 333.54 288.51 365.49 288.51 302.27 193.34"/></g><g><rect class="cls-9" x="705" y="502.98" width="391.55" height="205.97" rx="17.02" ry="17.02"/><rect class="cls-28" x="686.87" y="486.67" width="391.55" height="205.97" rx="17.02" ry="17.02"/><circle class="cls-9" cx="770.49" cy="596.11" r="53.02"/><circle class="cls-4" cx="760.97" cy="589.99" r="53.02" transform="translate(-194.3 710.89) rotate(-45)"/><polygon class="cls-27" points="731.74 579.8 767.09 615.82 832.35 522.01 763.69 590.67 731.74 579.8"/><rect class="cls-9" x="838.46" y="551.93" width="116.24" height="23.79" rx="4.36" ry="4.36"/><rect class="cls-9" x="838.46" y="607.52" width="193.06" height="23.79" rx="4.36" ry="4.36"/></g><g><path class="cls-21" d="M815.39,647.59c-10.25,51.57,35.83,129.24,84.07,148.09l20.88-6.86c-5.31-57.38-34.19-135.97-104.95-141.23Z"/><path class="cls-12" d="M892.11,718.02c.03-.47-.32-.88-.79-.91-.47-.03-.88,.32-.91,.79l-1.82,25.94c-10.57-17.9-24.79-39.74-42.17-61.4,0-.03,.01-.06,0-.09l-1.7-18.03c-.04-.47-.46-.81-.93-.77-.47,.04-.81,.46-.77,.93l1.47,15.59c-7.32-8.99-15.17-17.93-23.54-26.5-.33-.34-.87-.34-1.2-.02-.34,.33-.34,.87-.01,1.2,17.06,17.49,32,36.46,44.52,54.38l-20.12,.8c-.47,.02-.84,.41-.82,.89,.02,.47,.41,.84,.89,.82l21.21-.84c27.57,39.78,43.11,73.95,43.33,74.45,.18,.4,.63,.59,1.04,.46,.03,0,.06-.02,.08-.03,.43-.19,.62-.7,.43-1.13-.15-.34-7.22-15.89-20.21-38.14,.02-.06,.04-.12,.04-.18l1.98-28.19Z"/></g><path class="cls-31" d="M80.55,782.05h979.1c7.38,0,13.37,5.99,13.37,13.37v23.11H67.18v-23.11c0-7.38,5.99-13.37,13.37-13.37Z"/><g><path class="cls-33" d="M196.99,755.61c2.11,9.74,2.89,25.03,2,25.66,0,0-12.4,.23-12.58,0-.53-.39-.35-7.96,.4-12.6,.75-4.64,2.45-15.06,2.45-15.06l7.73,2Z"/><path class="cls-33" d="M221.71,754.56c.41,1.64,.59,3.28-.73,5.82-1.32,2.55-1.32,3.87-.14,6.73,1.18,2.87,2.32,14.15,2.32,14.15h1.23l-.55-13.2c3.32,.36,10.28,8.01,11.01,10.51s2.55,2.78,2.68,2.78h13.79c-.23-.96-9.24-4.05-10.24-4.96-2.32-9.19-6.73-14.42-8.01-17.79-1.27-3.37-1.27-5.64-1.27-5.64l-10.1,1.59Z"/><path class="cls-37" d="M239.73,574s10.01,25.54,9.28,39.01c-.73,13.47-12.74,143.06-13.1,143.6-10.19,3.46-14.92-.55-14.92-.55l-4.79-84.82s-12.98,82.87-13.23,83.6c-7.89,5.1-16.5-.97-16.5-.97,0,0-3.15-130.59-.7-143.42,2.46-12.83,15.02-37.55,15.02-37.55l38.95,1.09Z"/><path class="cls-14" d="M216.19,670.39c.11,0,.21-.08,.23-.2,.09-.61,9.23-60.56,9.7-62.34,.28-1.06,.97-1.5,1.64-1.92,.42-.27,.82-.52,1.11-.91,.74-.99-.24-22.13-.44-26.36,0-.13-.12-.23-.24-.22-.13,0-.23,.12-.22,.24,.48,10,1.02,25.19,.53,26.06-.24,.32-.6,.55-.98,.79-.71,.45-1.51,.96-1.84,2.2-.48,1.81-9.34,59.92-9.71,62.39-.02,.13,.07,.25,.2,.26,.01,0,.02,0,.04,0Z"/><path class="cls-14" d="M229.83,611.54s-1.01-.91-1.94-1.63c-.25-.19-.24-.35-.18-.46,.09-.18,.19-.36,2.64,.21,1.27,.3,2.69,.69,3.44,.93,.05,.01,.08,.03,.12,.03-.54-.51-2.56-1.63-5.66-1.72-.13,0-.23-.11-.23-.24,0-.13,.11-.23,.24-.23,3.46,.1,5.92,1.49,6.21,2.18,.09,.2,0,.33-.05,.38-.14,.15-.38,.16-.78,.03-1.48-.47-4.13-1.14-5.19-1.28,.86,.68,1.68,1.42,1.69,1.43,.1,.09,.1,.23,.02,.33-.05,.05-.11,.08-.17,.08-.06,0-.11-.02-.16-.06Z"/><path class="cls-14" d="M217,612.07c-.06-.11-.02-.25,.09-.32,.01,0,1.02-.57,2.82-1.35-1.42,.16-4.4,.71-6.19,1.18-.75,.2-.97,.16-1.09,.03-.07-.08-.09-.18-.05-.28,.19-.53,3.7-1.97,8.87-2.7,.13-.02,.24,.07,.26,.2,.02,.13-.07,.24-.2,.26-3.86,.55-6.58,1.46-7.81,2.02,1.09-.28,2.79-.63,4.27-.89,2.9-.5,2.97-.32,3.04-.1,.1,.28-.27,.44-.54,.55-2.01,.85-3.15,1.48-3.16,1.49-.04,.02-.07,.03-.11,.03-.08,0-.16-.04-.2-.12Zm-4-.55h0Z"/><path class="cls-1" d="M238.91,566.68l.82,7.31c-12.44,5.16-37.74,.3-38.95-1.09,2-4.55,2.43-8.43,2.43-8.43l35.7,2.21Z"/><g><rect class="cls-1" x="182.85" y="623.02" width="51.37" height="34.3" transform="translate(417.07 1280.35) rotate(180)"/><path class="cls-29" d="M234.78,634.39h1.5v2.81h2.54v5.95h-2.54v2.81h-1.5c-2.8,0-5.07-2.27-5.07-5.07v-1.44c0-2.8,2.27-5.07,5.07-5.07Z"/></g><path class="cls-33" d="M200.5,612.19c4.27,1.07,5.83,3.86,7.39,6.4,1.56,2.54,7.63,2.3,7.71,2.95s-2.54,2.05-6.81,1.97c-4.27-.08-1.81,13.29-2.63,15.35-.82,2.05-3.77-10.5-4.51-11.57,.25,4.68,2.63,11.32,1.56,11.74-1.07,.41-2.13-1.23-2.13-1.23-1.39,.16-2.87-2.54-2.87-2.54,0,1.64-1.15,1.23-2.3-.49-1.15-1.72-3.53-7.06-4.02-10.42-.49-3.36-.98-9.68-.98-9.68l9.6-2.46Z"/><path class="cls-2" d="M312.9,518.18c1.52-2.06,1.64-6.01,4.37-8.37,2.73-2.37,4.06-2.49,8.01-2.97,3.94-.49,4.31-3.34,5.28-3.03,.97,.3,2.37,3.58-2.24,6.19-4.43,2.67,3.52,11.47,2.37,12.38-1.15,.91-6.43,1.82-9.22,2.49-2.79,.67-3.7,2.06-3.7,2.06,0,0-7.04-3.64-7.04-3.94s2.18-4.79,2.18-4.79Z"/><path class="cls-36" d="M211.64,507.74c-11.31,4.43-28.51,21.72-33.97,45.02-5.46,23.3-5.1,31.67-2.37,37.49,2.73,5.82,10.56,20.02,14.74,23.57,.46,.82,.73,1.91,.73,2.18,7.74-.27,11.01-3.55,11.01-3.55l-1.09-1.91c0-1.09-7.19-33.4-7.46-35.31-.27-1.91,7.19-19.29,7.19-19.29-.36,6.01,.36,9.65,3.28,10.28,14.56,2.55,30.67,2.55,35.22,.46,4.28-6.55,9.65-18.84,9.65-18.84,1.73,2.28,17.93,9.1,30.4,7.46,12.47-1.64,32.31-18.2,36.95-26.21,1.18-.73,2.64-2.28,2.64-2.28l-5.64-8.65-2.28,1.55c-6.55,2.46-35.13,12.56-36.86,12.47-1.73-.09-25.39-13.92-30.76-17.93-5.37-4-12.01-5.19-12.01-5.19l-6.55,1.18-12.8-2.52Z"/><path class="cls-8" d="M209.39,455.15c-.94,1.35-1.73,.29-2.26,1.28-.53,.99-.57,1.57-1.89,1.99-1.32,.42-1.84,1.35-2.06,2.56-.22,1.21-2.29,1.25-1.56,2.72s1.3,2,.7,3.12c-.6,1.12-.5,.67-.1,1.77,.4,1.09-.51,1.64,.21,2.4,.72,.76,1.24,.25,1.63,1.06s.34,1.03,1.17,1.64c.83,.61,.59,1.59,1.05,1.98s2.53-.13,4.29-1.29c1.76-1.16,11.49-7.43,11.29-8.58-.2-1.14-.46-1.58,.46-2.74,.93-1.16,.34-1.49-.04-2.07s1.36-1.35-.05-2.29c-1.41-.94-1.66-.25-2.2-1.65-.54-1.4,0-2.29-1.41-2.33-1.42-.04-1.45-.85-2.4-1.18s-1.44,.76-2.1,.42c-.65-.34-1.77-.87-2.78,.11-1.01,.99-1.62,.49-1.95,1.08Z"/><path class="cls-1" d="M234.09,477.41c2.55-1.27,2.09-1.91,2.18-4.1,.09-2.18,1.91-4.19,.36-5.28-1.55-1.09-1.46-2.46-1.91-3.55-.46-1.09-2,.27-3.28-1.37-1.27-1.64-2.64-3.19-5.1-2.46-2.46,.73-3.55,.18-5.82-.27-2.28-.46-3.73,.09-4.46,1.37-.73,1.27-1.46,1.27-4.28,2.09-2.82,.82-3.09,2.37-3.09,4.64s-2.37,2.28-2.55,4.55c-.18,2.28,1.09,3.82,.55,4.91-.55,1.09-1.46,3.91-.18,5.28,1.27,1.37,1.73,2.18,1.73,3.46s.82,2,1.73,2,.73,.18,1.64,1,2.37-.09,3.46,.18c1.09,.27,2.18,1.27,4,.73,1.82-.55,15.02-13.2,15.02-13.2Z"/><path class="cls-33" d="M232.57,468.73c.61,1.15,2.31,8.43,2,12.01-.3,3.58-.24,16.99-7.46,18.14-.73,6.13,.61,9.71,3.88,10.19,.97,4.49-1.4,20.99-4.98,26.33-11.65-7.95-14.08-26.33-14.38-27.67,5.34-2.49,2.31-19.29,1.94-21.42-4.13,.61-6.19-4.91-5.58-7.4s5.64-3.7,6.92,1.88c.79,.73,1.7-.24,1.46-1.15-.24-.91,.85-1.03,1.03-1.94,.18-.91-.55-1.52-.67-2.24-.12-.73,1.4-1.21,1.4-1.88s-.79-.97-.73-1.76,.3-.73,1.09-1.03c.79-.3,1.7-1.21,2.37-.85,.67,.36,1.03,1.15,2.31,.55,1.27-.61,.85,.18,2.12-.61,1.27-.79,1.88-1.15,2.79-.85,.91,.3,1.33,.85,1.94,.67s.12-.24,1.27-.67c1.15-.42,1.27-.3,1.27-.3Z"/><path class="cls-19" d="M230.51,491.35c-.71,2.88-1.4,4.19-3.99,3.79-2.59-.39-3.96-4.76-3.96-4.76l7.95,.97Z"/><path class="cls-23" d="M230.42,491.27c-1.16,2-1.75,3-3.53,2.89-1.77-.11-3.96-3.34-4.12-3.78,3.84,.68,7.64,.89,7.64,.89Z"/><path class="cls-17" d="M228.55,493.78c-.44,.29-.95,.42-1.65,.38-1.77-.11-3.96-3.34-4.12-3.78,.34,.06,.68,.12,1.01,.17l2.45,1.03s1.14,.58,2.31,2.2Z"/><path class="cls-4" d="M230.38,491.36c-1.15,1.35-3.12,1.13-4.75,.71-1.64-.42-2.65-1.54-2.65-1.54l7.41,.83Z"/><path class="cls-19" d="M230.86,491.08c-2.75-1.68-4.39-1.37-8.39-.86,3,1.82,6.6,1.71,8.39,.86Z"/><ellipse class="cls-1" cx="223.33" cy="482.52" rx=".96" ry="1.53"/><path class="cls-1" d="M230.57,482.57c0,.85,.43,1.53,.96,1.53s.96-.69,.96-1.53-.43-1.53-.96-1.53-.96,.69-.96,1.53Z"/><path class="cls-1" d="M229.54,488.88c.42,0,2.43-.89,2.63-1.85,.13-.6-.42-.83-.95-1.06-.46-.2-.98-.42-1.29-.88-.6-.87-.35-2.5-.04-4.56,.04-.3,.09-.6,.14-.92,.01-.1-.06-.2-.16-.21-.1-.01-.2,.06-.21,.16-.04,.31-.09,.62-.14,.92-.32,2.14-.57,3.84,.11,4.83,.38,.55,.97,.8,1.45,1.01,.58,.25,.79,.37,.73,.64-.16,.73-1.99,1.56-2.26,1.55-.11,0-.19,.07-.2,.17,0,.1,.06,.19,.16,.2h.02Z"/><path class="cls-1" d="M227.93,491.83c1.02,0,2.06-.16,3.02-.57,.09-.04,.14-.15,.1-.24-.04-.09-.15-.14-.24-.1-3.5,1.49-8.3-.51-8.78-1.29-.05-.09-.17-.12-.26-.06-.09,.05-.12,.17-.06,.26,.39,.64,3.25,2.01,6.22,2.01Z"/><path class="cls-11" d="M226.95,496.18c.53,.07,1.14,0,1.81-.32,.09-.05,.13-.16,.09-.25-.05-.09-.16-.13-.25-.09-1.39,.68-2.53,.11-2.92-.41-.06-.08-.18-.1-.26-.04-.08,.06-.1,.18-.04,.26,.27,.36,.84,.74,1.57,.84Z"/><path class="cls-11" d="M225.15,499.32c.17,0,.34-.01,.5-.04,.1-.02,.17-.11,.16-.21-.02-.1-.11-.17-.21-.16-3.24,.5-8.35-4.54-9.29-7.04-.04-.1-.14-.14-.24-.11-.1,.04-.14,.14-.11,.24,.93,2.47,5.8,7.31,9.2,7.31Z"/><path class="cls-11" d="M213.06,485.42c.1,0,.18-.08,.19-.17,0-.1-.07-.19-.17-.2-1.03-.07-1.72-.54-1.94-1.32-.21-.76,.07-1.7,.64-2.09,.36-.25,.75-.23,1.15,.05,.06,.04,.14,.05,.21,0,.06-.04,.1-.12,.08-.19,0-.03-.67-3.43-3.41-3.31-.1,0-.18,.09-.18,.19,0,.1,.09,.18,.19,.18,1.89-.09,2.67,1.77,2.92,2.61-.41-.15-.82-.1-1.19,.16-.69,.49-1.04,1.59-.78,2.5,.15,.55,.65,1.48,2.27,1.59h.01Z"/><path class="cls-11" d="M223.48,510.31c.1,0,.19-.08,.19-.19s-.08-.19-.19-.19c-1.09,0-1.54-1.55-1.73-2.84-.01-.1-.11-.17-.21-.16-.1,.01-.17,.11-.16,.21,.37,2.61,1.35,3.16,2.1,3.16Z"/><path class="cls-14" d="M227.66,535.6c.05,0,.11-.02,.14-.07,.34-.42,8.4-10.25,9.07-12.63,.22-.79-1.5-9.25-2.68-11.9-.04-.09-.15-.14-.25-.09-.09,.04-.14,.15-.09,.25,1.27,2.86,2.81,11.11,2.66,11.65-.65,2.3-8.92,12.39-9,12.49-.07,.08-.05,.2,.03,.26,.03,.03,.08,.04,.12,.04Z"/><path class="cls-14" d="M223.77,535.9s.08-.01,.12-.04c.08-.06,.09-.18,.03-.26-2.74-3.38-11.09-9.93-14.04-10.66-.22-.63-.09-6.26-.01-10,.04-1.88,.08-3.66,.08-4.76,0-.1-.08-.19-.19-.19s-.19,.08-.19,.19c0,1.09-.04,2.87-.08,4.75-.15,7.02-.17,10,.13,10.31,.03,.03,.06,.04,.09,.05,2.57,.57,11.02,6.98,13.91,10.55,.04,.05,.09,.07,.14,.07Z"/><path class="cls-14" d="M227.84,565.69c.09,0,.17-.07,.18-.17,0-.09,.97-9.39,1.09-13.12,.14-4.21-.52-8.57-2.07-13.71-.03-.1-.13-.15-.23-.12-.1,.03-.15,.13-.12,.23,1.54,5.1,2.19,9.42,2.05,13.59-.12,3.71-1.08,13-1.09,13.09-.01,.1,.06,.19,.17,.2h.02Z"/><path class="cls-14" d="M248.22,546.94c.09,0,.16-.06,.18-.15,.01-.05,1.02-5.15-.98-10.72-2.25-6.28-3.62-11.63-4.72-18.47-.02-.1-.11-.17-.21-.15-.1,.02-.17,.11-.15,.21,1.11,6.87,2.48,12.24,4.74,18.54,1.96,5.47,.97,10.47,.96,10.52-.02,.1,.04,.2,.14,.22,.01,0,.03,0,.04,0Z"/><path class="cls-14" d="M276.07,538.33s.04,0,.06,0c.1-.03,.15-.14,.12-.23-.37-1.16-.71-2.04-.96-2.69-.2-.53-.4-1.03-.41-1.21,.01,0,.03,0,.05,.01,.55,.14,1.56,1.31,1.9,1.75,.06,.08,.18,.1,.26,.03,.08-.06,.1-.18,.03-.26-.13-.17-1.34-1.69-2.1-1.89-.07-.02-.3-.07-.43,.08-.19,.22-.04,.6,.35,1.61,.25,.64,.59,1.52,.95,2.67,.03,.08,.1,.13,.18,.13Z"/><path class="cls-14" d="M188.72,579.66s.09-.02,.13-.05c.89-.83,1.55-1.51,2.03-2.01,.39-.41,.77-.79,.92-.88,0,.01,0,.03,.01,.05,.11,.55-.53,1.97-.79,2.46-.05,.09-.01,.2,.08,.25,.09,.05,.2,.01,.25-.08,.1-.19,.97-1.93,.82-2.7-.01-.07-.06-.3-.25-.36-.28-.08-.56,.21-1.31,1-.48,.5-1.13,1.17-2.02,1.99-.08,.07-.08,.19-.01,.26,.04,.04,.09,.06,.14,.06Z"/><path class="cls-14" d="M315.69,528.68s.06,0,.09-.02c.09-.05,.12-.16,.07-.25-.02-.04-2.34-4.06-5.29-8.21-.06-.08-.18-.1-.26-.04-.08,.06-.1,.18-.04,.26,2.93,4.13,5.25,8.14,5.27,8.18,.03,.06,.1,.09,.16,.09Z"/><path class="cls-14" d="M191.04,614.13s.04,0,.06,0c.04-.01,4.46-1.44,9.13-3.45,.09-.04,.14-.15,.1-.24-.04-.09-.15-.14-.24-.1-4.65,2-9.05,3.43-9.1,3.44-.1,.03-.15,.14-.12,.23,.03,.08,.1,.13,.18,.13Z"/><path class="cls-14" d="M201.05,543.76c.09,0,.18-.07,.18-.17,.01-.14,1.28-14.2-6.32-23.52-.07-.08-.18-.09-.26-.03-.08,.06-.09,.18-.03,.26,7.51,9.2,6.25,23.11,6.24,23.25,0,.1,.07,.19,.17,.2h.02Z"/><path class="cls-1" d="M226.41,477.99c-3.58-.7-7.7,.85-7.7,.85,2.79-3.52,6.43-3.25,7.7-.85Z"/><path class="cls-1" d="M234.54,478.44c-2.58-.58-4.16,.06-4.16,.06,1.09-2.79,3.79-1.61,4.16-.06Z"/><path class="cls-14" d="M229.13,540.52c0,.58,.47,1.05,1.05,1.05s1.05-.47,1.05-1.05-.47-1.05-1.05-1.05-1.05,.47-1.05,1.05Z"/><path class="cls-14" d="M231.04,550.44c0,.58,.47,1.05,1.05,1.05s1.05-.47,1.05-1.05-.47-1.05-1.05-1.05-1.05,.47-1.05,1.05Z"/><path class="cls-33" d="M331.18,516.34c-.73-1.25-1.94-2.22-3.38-2.42-2.34-.32-2.71,1.66-2.71,1.66-2.02-.18-1.68,2.02-1.68,2.02-2.42-.59-3.92,1.98-1.37,4.85,2.55,2.87,4.53,1.92,4.29,1.11,1.53,1.03,2.5,.77,3.09,.25,.68-.6,1.57-.92,2.47-1.07,1.61-.27,1.74-2.2,1.74-2.2l-2.44-4.2Z"/><path class="cls-33" d="M326.7,512.89s14.79,4.59,16.99,7.14c2.21,2.55-10.71,.06-11.44,.06s-2.95-.28-3.12-.68c-.17-.4-2.44-6.51-2.44-6.51Z"/><path class="cls-11" d="M200.8,636.76s.04,0,.06-.01c.09-.03,.13-.13,.09-.22-2.54-6.31-3.05-8.97-3.05-9-.02-.09-.1-.15-.2-.13-.09,.02-.15,.1-.13,.2,0,.03,.52,2.72,3.07,9.06,.03,.07,.09,.11,.16,.11Z"/><path class="cls-11" d="M197.95,634.19s.05,0,.07-.02c.08-.04,.12-.14,.08-.22-1.77-3.87-2.12-5.11-2.12-5.12-.02-.09-.12-.14-.21-.12-.09,.02-.14,.12-.12,.21,.01,.05,.35,1.26,2.14,5.17,.03,.06,.09,.1,.15,.1Z"/><rect class="cls-37" x="209.15" y="566.68" width="2.46" height="9.28" transform="translate(349.68 1164.01) rotate(-173.01)"/><rect class="cls-37" x="236.09" y="566.93" width="2.46" height="9.28" transform="translate(582.26 1085.4) rotate(168.67)"/><path class="cls-1" d="M251.33,781.36h-13.79c-.14,0-1.96-.27-2.68-2.78-.73-2.5-7.69-10.15-11.01-10.51l.55,13.2h-1.23s-1.14-11.28-2.32-14.15c-1.18-2.87-1.18-4.19,.14-6.73,.21-.4,.37-.78,.51-1.13,4.28,.43,8.4,6.47,11.59,11.05,3.64,5.23,6.1,5.96,8.01,6.1,1,.91,10.01,4,10.24,4.96Z"/><path class="cls-1" d="M187.32,765.48c-.14,4.35-.2,10.82,.27,10.78,.68-.05,6.86-1.87,10.33-.32,.31-.34,.68-4.54,.77-8.9,.73,7.23,.86,13.81,.28,14.22,0,0-12.4,.23-12.58,0-.53-.39-.35-7.96,.4-12.6,.14-.89,.32-1.99,.52-3.19Z"/></g><g><path class="cls-32" d="M950.17,572.04c.97,4.23,4.35,9.66,4.35,15.22l-40.58,6.76c.72-6.28,12.68-13.16,17.99-17.15,5.31-3.99,6.16-7.25,6.16-7.25l12.08,2.42Z"/><path class="cls-1" d="M952.57,578.79c-1.52,2.23-5.78,6.11-16.93,6.05-.92-.55,.04-4.51-4.77-7.2-5.69,4.06-16.25,10.48-16.93,16.37l40.58-6.76c0-2.91-.93-5.78-1.95-8.47Z"/><path class="cls-32" d="M972.39,577.44c.97,4.23,4.35,9.66,4.35,15.22l-40.58,6.76c.72-6.28,12.68-13.16,17.99-17.15,5.31-3.99,6.16-7.25,6.16-7.25l12.08,2.42Z"/><path class="cls-37" d="M1049.08,481.3c-1.45,13.53-18.6,18.84-64.25,22.71-4.35,29.23-7.73,74.39-7.73,74.39-19.08,1.21-26.33-2.66-26.33-2.66,0,0,1.21-2.66-.48-2.9-14.01,.48-18.36-2.42-18.36-2.42,0,0-1.69-86.23,.97-88.89,2.66-2.66,40.1-16.42,40.1-16.42l76.09,16.18Z"/><path class="cls-13" d="M951.37,570.95h0c-.09,0-.15-.07-.15-.16,.02-.76,2.44-76.06,4.35-83.01,1.94-7.02,38.54-13.6,40.1-13.88,.08-.01,.16,.04,.18,.12,.01,.08-.04,.16-.12,.18-.38,.07-37.97,6.83-39.85,13.66-1.91,6.91-4.32,82.17-4.34,82.93,0,.08-.07,.15-.15,.15Z"/><path class="cls-13" d="M968.99,573.51c-3.8,0-9.09-.34-15.71-1.59-.08-.02-.14-.1-.12-.18,.02-.08,.1-.14,.18-.12,14.53,2.74,22.56,1.1,22.64,1.09,.08-.02,.17,.04,.18,.12,.02,.08-.04,.17-.12,.18-.04,0-2.48,.51-7.05,.51Z"/><path class="cls-13" d="M949.15,568.1c-1.85,0-5.93-.47-14.72-2.84-.08-.02-.13-.11-.11-.19,.02-.08,.11-.13,.19-.11,13.92,3.74,15.86,2.72,15.94,2.68,.07-.04,.17-.02,.21,.05,.05,.07,.03,.16-.04,.21-.03,.02-.32,.2-1.47,.2Z"/><path class="cls-13" d="M969.73,571.19h-.02c-.08-.01-.15-.09-.14-.17,2.76-23.09,7.87-67.16,7.49-68.66-.18-.71-.53-1.15-.78-1.47-.22-.27-.39-.49-.33-.74,.07-.25,.36-.46,1.07-.75,1.08-.45,1.2-.72,1.36-1.11,.13-.32,.3-.73,1.02-1.29,1.43-1.1,2.05-.94,4.35-.32,.33,.09,.69,.19,1.1,.29,3.27,.85,41.18-10.15,47.16-13.69,5.47-3.24,5.9-7.39,5.9-7.43,0-.08,.08-.15,.17-.14,.08,0,.15,.08,.14,.17-.01,.18-.43,4.34-6.05,7.67-3.44,2.03-15.51,5.89-24.8,8.57-10,2.89-20.87,5.6-22.6,5.15-.41-.11-.77-.2-1.1-.29-2.29-.62-2.77-.75-4.08,.26-.66,.51-.8,.85-.93,1.16-.17,.42-.32,.78-1.52,1.28-.21,.09-.84,.35-.89,.54-.03,.1,.1,.26,.27,.47,.27,.34,.64,.81,.84,1.58,.48,1.94-7.16,66.05-7.48,68.77,0,.08-.08,.14-.15,.14Z"/><path class="cls-13" d="M982.27,504.56c-1.48,0-2.94-.86-3.02-.9-.07-.04-.1-.14-.05-.21,.04-.07,.14-.1,.21-.05,.02,.01,2.19,1.28,3.79,.71,.27-.1,.29-.17,.29-.18,.02-.14-.45-.49-.87-.8-1.06-.78-2.66-1.97-3.43-4.02-.03-.08,.01-.17,.09-.2,.08-.03,.17,.01,.2,.09,.74,1.96,2.3,3.12,3.33,3.88,.65,.48,1.04,.77,1,1.09-.03,.23-.3,.35-.49,.42-.33,.12-.68,.17-1.04,.17Z"/><g><polygon class="cls-34" points="1053.35 455.42 1046.96 484.08 892.54 449.68 877.71 431.09 898.92 421.02 1053.35 455.42"/><path class="cls-6" d="M892.54,449.68c8.48-2.51,5.52-10.35,5.52-10.35,8.15-8.82,.86-18.31,.86-18.31l154.42,34.4-6.38,28.66-154.42-34.4Z"/><path class="cls-13" d="M892.54,449.68l154.42,34.4,2.46-11.03-151.36-33.72s2.96,7.84-5.52,10.35Z"/><path class="cls-6" d="M877.71,431.09l6.82,8.45c1.49-1.15,1.63-1.74,1.63-1.74,2.96-1.07-.89-4.9-.89-4.9,3.71-2.76,.62-5.69,.62-5.69l-8.18,3.89Z"/><rect class="cls-3" x="920.14" y="423.12" width="7.09" height="21.58" rx="1.3" ry="1.3" transform="translate(299.29 1241.13) rotate(-77.44)"/><rect class="cls-3" x="936.56" y="434.02" width="7.09" height="7.09" rx="1.3" ry="1.3" transform="translate(308.62 1260.05) rotate(-77.44)"/><rect class="cls-24" x="1036.39" y="458.78" width="33.7" height="23.19" transform="translate(365.08 1396.12) rotate(-77.44)"/><path class="cls-30" d="M1064.73,460.99h29.35v25.06c0,2.97-2.41,5.38-5.38,5.38h-18.59c-2.97,0-5.38-2.41-5.38-5.38v-25.06h0Z" transform="translate(379.87 1426.23) rotate(-77.44)"/></g><ellipse class="cls-1" cx="1041.75" cy="359.93" rx="8.37" ry="9.22"/><path class="cls-1" d="M1007.85,371.4c-5.88-8.45-1.05-16.75,5.8-16.91,8.45-4.67,19.32-3.06,22.71,7.17s-9.18,22.62-9.18,22.62l-19.32-12.88Z"/><path class="cls-32" d="M1011.94,361.38c2.17,6.34,15.58,10.27,16.3,10.27,.24,2.66-.06,5.13-.06,5.13,1.75-2.9,3.68-4.23,5.62-2.78,1.93,1.45-.24,9.54-5.56,8.03-1.93,10.27-.12,12.86-.12,13.04-5.37,6.1-12.74,1.15-12.74,.66,.66-2.42,.66-4.41,.66-4.41-2.05-.3-6.7-2.66-7.55-7.61-.85-4.95-.91-12.68-1.45-14.67-.54-1.99,1.75-7.19,4.89-7.67Z"/><path class="cls-5" d="M1012.79,382.33c.24-1.85,3.04-1.49,7.99-.42-1.13,3.54-7.41,6.28-7.99,.42Z"/><path class="cls-32" d="M1015.02,472.19c-1.09-2.42-1.09-7.73-1.33-7.79-2.23-.6-2.48-3.99-6.28-4.23-3.8-.24-7.13-2.72-7.55-2.72-1.33,1.03-.06,2.72,2.05,3.86,2.11,1.15,4.71,2.42,.66,3.38-4.05,.97-15.4,.85-14.73,2.11,.66,1.27,1.93,1.69,1.93,1.69,.42,1.93,2.05,2.96,2.05,2.96,1.87,2.11,11.84,3.32,15.94,2.6,4.11-.72,7.25-1.87,7.25-1.87Z"/><path class="cls-1" d="M1021.57,374.7c0,.94-.51,1.7-1.14,1.7s-1.14-.76-1.14-1.7,.51-1.7,1.14-1.7,1.14,.76,1.14,1.7Z"/><path class="cls-1" d="M1013.15,374.97c0,.94-.51,1.7-1.14,1.7s-1.14-.76-1.14-1.7,.51-1.7,1.14-1.7,1.14,.76,1.14,1.7Z"/><path class="cls-1" d="M1012.89,379.25c-.52,0-.57-.04-.6-.06-.04-.03-.06-.08-.06-.12,0-.1,.06-.16,.29-.37,.91-.84,3.7-3.4,1.19-7.34-.05-.07-.02-.17,.05-.21,.07-.05,.17-.02,.21,.05,1.75,2.76,1.34,5.36-1.24,7.73l-.02,.02c.62,0,2.2-.08,3.63-.18,.09,0,.16,.06,.16,.14,0,.08-.06,.16-.14,.16-1.94,.14-2.94,.18-3.47,.18Z"/><path class="cls-1" d="M1015.92,383.07c-1.26,0-2.57-.2-3.82-.72-.08-.03-.12-.12-.08-.2,.03-.08,.12-.12,.2-.08,4.27,1.75,9.13-.25,9.65-1.26,.04-.08,.13-.11,.21-.07,.08,.04,.11,.13,.07,.21-.47,.91-3.16,2.12-6.22,2.12Z"/><path class="cls-11" d="M1015.92,388.06c-.49,0-1.02-.12-1.5-.44-.07-.05-.09-.14-.04-.21,.05-.07,.14-.09,.21-.04,1.17,.79,2.64,.16,2.92-.08,.07-.05,.16-.05,.22,.02,.05,.07,.05,.16-.02,.22-.28,.23-1,.54-1.8,.54Z"/><path class="cls-11" d="M1017.62,391.88c-.07,0-.14-.05-.15-.13-.01-.08,.04-.16,.13-.18,4.54-.76,8.51-5.78,9.36-9.03,.02-.08,.11-.13,.19-.11,.08,.02,.13,.11,.11,.19-.87,3.34-4.94,8.48-9.6,9.26h-.03Z"/><path class="cls-11" d="M1030.22,380.1s-.05,0-.08,0c-.09,0-.15-.08-.15-.16s.08-.15,.16-.15c.62,.03,1.12-.32,1.33-.92,.18-.5,.1-1.03-.18-1.24-.26-.19-.67-.1-1.15,.26-.05,.04-.12,.04-.18,0-.05-.04-.08-.1-.06-.17,.07-.27,.96-2.39,2.23-2.84,.47-.17,.92-.09,1.36,.22,.07,.05,.09,.15,.04,.22-.05,.07-.15,.09-.22,.04-.36-.25-.71-.31-1.08-.18-.85,.3-1.55,1.54-1.86,2.21,.57-.28,.93-.14,1.11,0,.39,.29,.51,.96,.29,1.59-.25,.71-.83,1.13-1.56,1.13Z"/><path class="cls-11" d="M998.32,469.41c-1.8,0-4.23-.1-7.46-.4-.08,0-.15-.08-.14-.17s.08-.15,.17-.14c9.02,.83,11.81,.07,11.84,.07,.08-.02,.17,.02,.19,.11,.02,.08-.02,.17-.11,.19-.07,.02-1.24,.34-4.49,.34Z"/><path class="cls-11" d="M1002.64,472.76s-4.26-.02-10.19-1.82c-.08-.02-.13-.11-.1-.19,.02-.08,.11-.13,.19-.1,5.88,1.78,10.06,1.8,10.1,1.8,.09,0,.15,.07,.15,.15s-.07,.15-.15,.15Z"/><path class="cls-1" d="M1008.18,371.64c1.87-1.23,5.47-.66,5.29-.81-1.79-2.09-4.65-1.19-5.29,.81Z"/><path class="cls-1" d="M1017.58,370.76c3.22-.42,6.5,.99,6.62,1.09-4.19-2.98-6.8-2.54-6.62-1.09Z"/><path class="cls-36" d="M1066.23,458.24c1.21-3.2-6.04-38.65-12.92-45.41-6.88-6.76-21.98-12.08-22.71-13.77-.72-1.69-2.48-3.99-2.48-3.99l-12.74,.66c-1.57-.3-.85,2.72-3.62,3.56-2.78,.85-12.8,5.92-14.61,7.49-1.81,1.57-30.92,29.23-30.92,29.23l26.81,6.04,6.76-5.8c.12,1.09,0,6.04,2.29,7.61l40.02,8.97c-6.81,4.07-25.77,11.08-28.43,11.56-.36,4.23,1.33,7.79,1.33,7.79,0,0,23.79,3.44,35.51,.54,11.71-2.9,15.58-10.99,15.7-14.49Z"/><path class="cls-13" d="M999.8,435.32c-.06,0-.12-.04-.14-.1-.03-.07-2.73-6.69,.09-11.89,2.63-4.85,2.86-8.25,2.24-16.02,0-.08,.06-.16,.14-.17,.09,0,.16,.06,.17,.14,.63,7.84,.39,11.27-2.27,16.19-2.75,5.07-.1,11.56-.07,11.62,.03,.08,0,.17-.08,.2-.02,0-.04,.01-.06,.01Z"/><path class="cls-13" d="M1027.04,446.25c-.92,0-1.93-.04-3.02-.14-.08,0-.15-.08-.14-.17,0-.08,.08-.15,.17-.14,11.42,1.02,12.95-3.94,12.96-3.99,.02-.08,.11-.13,.19-.11,.08,.02,.13,.11,.11,.19-.05,.2-1.34,4.36-10.27,4.36Z"/><path class="cls-13" d="M1039.34,422.92h-.02c-.08-.01-.14-.09-.13-.17,0-.08,1.06-8.26,8.37-12.19,.08-.04,.17-.01,.21,.06,.04,.08,.01,.17-.06,.21-7.17,3.86-8.2,11.88-8.21,11.96,0,.08-.08,.14-.15,.14Z"/><path class="cls-13" d="M1042.72,452.96c-.05,0-.1-.03-.13-.07-.05-.07-.02-.17,.05-.21,.52-.33,1.9-1.31,2.02-1.91,.13-.66-.9-11.09-3.78-19.57-.03-.08,.02-.17,.1-.2s.17,.02,.2,.1c2.79,8.21,3.96,18.86,3.79,19.73-.17,.85-1.96,1.99-2.16,2.11-.03,.02-.05,.02-.08,.02Z"/><path class="cls-13" d="M1046.5,458.03c-.07,0-.13-.05-.15-.12-.17-.77-.33-1.46-.47-2.07-.68-3-.82-3.64-.5-3.81,.2-.1,.43,.08,.75,.42,1.11,1.19,1.91,1.92,1.92,1.92,.06,.06,.07,.15,.01,.22-.06,.06-.15,.07-.22,.01,0,0-.82-.74-1.94-1.94-.21-.22-.32-.31-.37-.34-.06,.3,.24,1.63,.65,3.44,.14,.61,.3,1.3,.47,2.07,.02,.08-.03,.17-.12,.18-.01,0-.02,0-.03,0Z"/><path class="cls-1" d="M974.79,584.19c-1.52,2.23-5.78,6.11-16.93,6.05-.92-.55,.04-4.51-4.77-7.2-5.69,4.06-16.25,10.48-16.93,16.37l40.58-6.76c0-2.91-.93-5.78-1.95-8.47Z"/></g></g></g></g></g></svg>