<?xml version="1.0" encoding="UTF-8"?><svg id="_이어_2" xmlns="http://www.w3.org/2000/svg" viewBox="0 0 511.61 140.74"><defs><style>.cls-1{fill:#00417a;}.cls-2{fill:#ff8b37;}</style></defs><g id="_이어_1-2"><g><circle class="cls-2" cx="101.79" cy="69.07" r="67.33"/><g><path class="cls-1" d="M93.96,100.52c31.39,6.76,59.96-2.29,63.82-20.21,1.98-9.22-2.98-19-12.53-27.24,4.06,5.97,5.78,12.3,4.47,18.39-3.85,17.93-32.42,26.98-63.82,20.21-15.24-3.28-28.33-9.69-37.33-17.46,7.9,11.6,24.66,21.85,45.39,26.31Z"/><path class="cls-1" d="M91.11,16.93c4.68,.07,8.53-3.65,8.6-8.33S96.06,.08,91.39,0s-8.53,3.65-8.6,8.33,3.65,8.53,8.33,8.6Z"/><path class="cls-1" d="M112.43,57.87c-.76,.02-1.52,.09-2.28,.22,0,0,.93,0,2.28-.22Z"/><path class="cls-1" d="M122.12,49.84c-.88,5.79-6.47,7.51-9.69,8.03,12.03-.37,23.96,11.64,23.96,11.64-5.3-11.8-14.27-19.67-14.27-19.67Z"/><path class="cls-1" d="M90.2,35.25s5.53-2.9,11.67,10.91c0,0-33.21,6.82-6.77,31.37l-4.65,1.3-5.23-3.89-3.9,1.09,5.23,3.89-3.9,1.09,2.62,1.94,3.9-1.09,2.16,1.61-3.9,1.09,2.62,1.94,3.9-1.09,.62,.46c3.96,2.94,11.98,3.99,17.88,2.34,3.62-1.01,5.6-2.8,5.7-4.72,3.79,.83,8.2,.84,11.81-.17,5.9-1.65,7.49-5.38,3.53-8.32l-.62-.46,3.9-1.09-2.62-1.94-3.9,1.09-2.16-1.61,3.9-1.09-2.62-1.94-3.9,1.09-5.23-3.89-3.9,1.09,5.23,3.89-24.6,6.87c-4.88-7.21-6.83-17.29,14.49-22.22,0,0,16.12-2.48,5.81-20.22,0,0-.67-1.41-1.86-3.44l-1.13-1.86c-3.2-5.03-7.28-12.52-13.54-13.17,0,0-3.45,5.43-11.78,4.05,0,0-8.94,21.42-28.04,23.23,0,0,16.55,1.76,29.3-8.13Zm33.98,36.82l5.4,4.01c2.51,1.87,1.51,4.24-2.24,5.29-3.75,1.05-8.85,.38-11.36-1.49l-5.4-4.01,13.61-3.8Zm-17.51,4.89l5.4,4.01c2.51,1.87,1.51,4.24-2.24,5.29s-8.85,.38-11.36-1.49l-5.4-4.01,4.32-1.21c2.09,1.79,4.49,3.68,7.23,5.65,0,0-3.11-2.44-6-5.99l8.06-2.25Z"/><path class="cls-1" d="M173.38,114.89s-10.32-8.12-31.86-13.36c-12.05,5.51-30.25,6.43-48.66,2.46-5.92-1.28-11.51-3.04-16.67-5.16-33.78,2.67-49.16,4.52-76.18-11.23,0,0,23.52,63.83,87.15,38.23,63.63-25.6,86.23-10.94,86.23-10.94Z"/><path class="cls-1" d="M135.29,117.27c-24.29,4.55-58.66,23.55-75.7,19.25,0,0,42.73,12.04,72.38-4.59,29.65-16.63,41.68-10.86,41.68-10.86,0,0-14.08-8.35-38.36-3.8Z"/><path class="cls-1" d="M111.35,21.35c11.49-.6,23.74-9.58,23.74-9.58-9.78,2.45-31.96,2.88-31.96,2.88,5.45,1.57,8.22,6.7,8.22,6.7Z"/></g><g><path class="cls-1" d="M196.51,100.03l.75-47,18.88,.3c5.91,.09,10.21,1.19,12.91,3.28,2.69,2.09,4.16,4.81,4.4,8.15,.11,1.02,.06,2.05-.14,3.1-.21,1.05-.55,2.06-1.03,3.02-.48,.92-1.11,1.77-1.88,2.54-.77,.77-1.65,1.36-2.63,1.76,2.39,1.18,4.14,3.02,5.27,5.53,1.12,2.51,1.53,5.09,1.24,7.75-.49,3.92-2.09,6.91-4.8,8.95-2.72,2.05-6.63,3.03-11.74,2.95l-21.22-.34Zm11.62-36.88l-.12,7.73,9.88,.16c1.39-.06,2.49-.42,3.28-1.09,.79-.66,1.2-1.59,1.22-2.77s-.39-2.07-1.22-2.78c-.83-.71-2.01-1.08-3.53-1.1l-9.5-.15Zm-.28,17.29l-.16,9.82,9.76,.16c2.19,.08,3.7-.36,4.52-1.32,.82-.96,1.24-2.13,1.26-3.53,.02-1.27-.43-2.4-1.34-3.41-.91-1.01-2.51-1.53-4.79-1.57l-9.25-.15Z"/><path class="cls-1" d="M239.89,53.71l11.28,.18-.75,47-11.28-.18,.75-47Z"/><path class="cls-1" d="M255.35,53.95l35.79,.57-.17,10.39-12.42-.2-.59,36.61-11.28-.18,.59-36.61-12.1-.19,.17-10.39Z"/><path class="cls-1" d="M315.53,103.14c-3.55-.06-6.71-.68-9.47-1.86-2.77-1.18-5.09-2.85-6.95-4.99-1.91-2.14-3.34-4.75-4.28-7.83-.94-3.08-1.39-6.52-1.32-10.32s.61-7.21,1.65-10.24c1.04-3.02,2.55-5.58,4.53-7.66,1.93-2.08,4.3-3.68,7.11-4.8,2.81-1.12,5.98-1.65,9.53-1.59s6.71,.69,9.51,1.89c2.79,1.21,5.14,2.88,7.05,5.02,1.91,2.14,3.36,4.74,4.34,7.8,.99,3.06,1.45,6.49,1.39,10.29s-.63,7.22-1.72,10.27c-1.08,3.05-2.61,5.61-4.59,7.69-1.98,2.08-4.38,3.67-7.2,4.76-2.83,1.1-6.01,1.61-9.56,1.56Zm.3-10.77c3.29,.05,6-1.15,8.1-3.61,2.11-2.46,3.2-5.82,3.27-10.09,.03-1.98-.22-3.83-.77-5.52-.54-1.7-1.29-3.19-2.24-4.47-.95-1.24-2.11-2.22-3.47-2.94-1.36-.72-2.84-1.09-4.45-1.12s-3.16,.3-4.55,.97c-1.38,.67-2.57,1.62-3.56,2.83-.99,1.25-1.78,2.72-2.35,4.4-.58,1.68-.88,3.51-.91,5.5-.07,4.27,.9,7.66,2.91,10.18,2.01,2.52,4.68,3.81,8.02,3.87Z"/><path class="cls-1" d="M341.28,78.9c.08-5.24,1.11-9.67,3.1-13.29,1.98-3.62,4.72-6.48,8.22-8.58,1.02-.62,2.25-1.11,3.67-1.49,1.42-.38,2.87-.64,4.35-.79,1.52-.14,3.01-.19,4.47-.15,1.46,.05,2.79,.2,4.02,.48,2.02,.45,4.04,1.31,6.07,2.57,2.03,1.26,4.1,3.09,6.22,5.49l-6.95,6.99c-2.03-2.31-4.26-3.8-6.68-4.45-2.42-.65-4.71-.64-6.88,.05-2.67,.84-4.76,2.39-6.25,4.62-1.49,2.24-2.27,5.15-2.33,8.74-.03,1.86,.19,3.56,.65,5.11,.46,1.55,1.08,2.92,1.87,4.12,.78,1.15,1.68,2.12,2.68,2.89s2.01,1.3,3.02,1.57c1.14,.31,2.33,.47,3.57,.47,1.25,0,2.48-.16,3.71-.48,1.19-.32,2.34-.81,3.44-1.47,1.11-.66,2.07-1.53,2.89-2.62l6.73,7.33c-2.11,2.37-4.19,4.16-6.23,5.35-2.05,1.19-4.15,1.96-6.31,2.31-1.23,.23-2.57,.35-4.03,.35-1.46,0-2.94-.1-4.46-.29-1.48-.19-2.92-.5-4.33-.92-1.41-.42-2.61-.96-3.62-1.61-3.43-2.21-6.07-5.14-7.94-8.81-1.86-3.66-2.75-8.15-2.67-13.48Z"/><path class="cls-1" d="M420.74,66.61l-24.77-.4-.14,8.55,23.57,.31-.16,9.82-23.56-.38-.14,8.68,15.01,.24c1.14,.02,2.16,.02,3.07,.02,.91,0,1.76-.05,2.57-.12,.76-.03,1.5-.08,2.22-.15,.72-.07,1.46-.17,2.22-.28l-.16,9.82c-1.4,.36-3.23,.57-5.49,.64-2.26,.07-4.28,.09-6.05,.06l-24.64-.39,.75-47,35.85,.57-.16,10.01Z"/><path class="cls-1" d="M468.67,104.38l-12.29-.2-3.22-8.61-14.32-.23-3.24,8.5-12.23-.2,18.17-46.72,9.95,.16,17.18,47.29Zm-22.15-33.62l-4.48,14.5,8.23,.13-3.76-14.63Z"/><path class="cls-1" d="M483.83,75.42l-.47,29.2-11.15-.18,.75-47,10.96,.18,16.08,28.52,.45-28.25,11.15,.18-.75,47-10.39-.17-16.64-29.48Z"/></g></g></g></svg>