<?xml version="1.0" encoding="UTF-8"?><svg xmlns="http://www.w3.org/2000/svg" xmlns:xlink="http://www.w3.org/1999/xlink" viewBox="0 0 183.9 90.55"><defs><style>.cls-1{fill:#fff;}.cls-2{fill:url(#linear-gradient-6);}.cls-3{isolation:isolate;}.cls-4{fill:url(#linear-gradient-5);}.cls-4,.cls-5{mix-blend-mode:multiply;}.cls-5{fill:url(#linear-gradient-2);}.cls-6{fill:url(#linear-gradient-3);}.cls-7{fill:url(#linear-gradient);}.cls-8{fill:url(#linear-gradient-4);}</style><linearGradient id="linear-gradient" x1="-395.11" y1="-49.26" x2="-415.77" y2="-121.96" gradientTransform="translate(441.3 285.31) rotate(23.52)" gradientUnits="userSpaceOnUse"><stop offset="0" stop-color="#d4d1d8"/><stop offset="1" stop-color="#fff"/></linearGradient><linearGradient id="linear-gradient-2" x1="-407.91" y1="-92.36" x2="-414.29" y2="-106.39" gradientTransform="translate(441.3 285.31) rotate(23.52)" gradientUnits="userSpaceOnUse"><stop offset="0" stop-color="#fff"/><stop offset="1" stop-color="#e6e7e8"/></linearGradient><linearGradient id="linear-gradient-3" x1="-547.53" y1="-180.28" x2="-430.88" y2="-110.93" xlink:href="#linear-gradient"/><linearGradient id="linear-gradient-4" x1="-464.48" y1="-77.59" x2="-404.79" y2="-85.82" xlink:href="#linear-gradient"/><linearGradient id="linear-gradient-5" x1="-407.73" y1="-27.04" x2="-406.17" y2="-59.88" gradientTransform="translate(441.3 285.31) rotate(23.52)" gradientUnits="userSpaceOnUse"><stop offset="0" stop-color="#fff"/><stop offset="1" stop-color="#dedfe0"/></linearGradient><linearGradient id="linear-gradient-6" x1="-314.17" y1="-40.85" x2="-405.36" y2="-100.03" xlink:href="#linear-gradient"/></defs><g class="cls-3"><g id="_이어_2"><g id="Layer_1"><g><polygon class="cls-7" points="183.9 20.59 29.52 25.02 24.63 69.49 183.9 20.59"/><polygon class="cls-5" points="183.9 20.59 29.52 25.02 24.63 69.49 183.9 20.59"/><polygon class="cls-6" points="183.9 20.59 29.52 25.02 7.54 17.19 0 0 183.9 20.59"/><polygon class="cls-8" points="183.9 20.59 47.68 49.76 24.63 69.49 183.9 20.59"/><polygon class="cls-4" points="183.9 20.59 47.68 49.76 24.63 69.49 183.9 20.59"/><polygon class="cls-2" points="183.9 20.59 47.68 49.76 56.11 74.64 72.84 90.55 183.9 20.59"/><polygon class="cls-1" points="72.84 90.55 56.11 74.64 47.68 49.76 24.63 69.49 29.52 25.02 7.54 17.19 0 0 8.16 17.04 29.95 25.03 25.46 67.9 47.68 49.76 56.5 73.91 72.84 90.55"/></g></g></g></g></svg>