<?xml version="1.0" encoding="UTF-8"?><svg id="_레이어_2" xmlns="http://www.w3.org/2000/svg" viewBox="0 0 53.67 83.87"><defs><style>.cls-1{fill:#fff;}.cls-2{fill:#4d4d4d;}.cls-3{fill:#00b2ff;}</style></defs><g id="_레이어_2-2"><g><path class="cls-1" d="M52.96,47.61c-.07-.33-.17-.65-.29-.96-.04-.34-.11-.67-.21-1-.87-2.97-2.2-5.73-3.83-8-1.07-1.48-2.7-2.43-4.48-2.64-.25-6.35-1.64-12.89-4.21-19.16-.12-.28-.25-.55-.4-.81-.08-.28-.18-.56-.31-.84-1.98-4.42-4.43-8.41-7.3-11.86C30.7,.86,28.87,0,26.94,0h-.01c-1.92,0-3.74,.85-4.98,2.32-2.88,3.44-5.36,7.42-7.35,11.83-.12,.27-.23,.55-.31,.84-.15,.25-.28,.52-.4,.8-2.59,6.26-4.02,12.8-4.29,19.15-1.79,.21-3.42,1.15-4.49,2.62-1.64,2.25-2.98,5.01-3.87,7.98-.1,.33-.17,.67-.22,1-.12,.31-.22,.62-.29,.95-1.39,6.13-.78,12.36,1.68,17.08,1.12,2.14,3.33,3.49,5.75,3.5h4.28s.01,0,.01,0c1.17,0,2.28-.31,3.26-.87,.2,.12,.4,.22,.61,.31,.55,2.49,1.66,4.29,2.44,5.56,.2,.32,.45,.73,.58,.98-.03,.13-.1,.37-.26,.73-1.04,2.4-.54,5.18,1.27,7.07,1.25,1.31,2.96,2.01,4.7,2.01,.77,0,1.56-.14,2.31-.42,5.17-1.96,9.15-6.45,10.38-11.7,.34-1.47,.46-2.95,.35-4.39,.93,.5,1.98,.78,3.08,.78h4.28s.01,0,.01,0c2.41,0,4.63-1.34,5.75-3.47,2.48-4.71,3.12-10.93,1.75-17.07Z"/><path class="cls-2" d="M21.58,56.68c-1.08,1.14-1.98,2.7-2.59,4.91l15.65,.03c-.6-2.21-1.5-3.78-2.57-4.92l-10.49-.02Z"/><path class="cls-3" d="M33.3,16.85c-1.7-3.79-3.84-7.32-6.37-10.35-2.54,3.03-4.7,6.54-6.41,10.32,1.86,.47,4.08,.74,6.38,.74,2.32,0,4.53-.26,6.39-.72Z"/><path class="cls-2" d="M33.92,18.31c-2.03,.53-4.45,.83-7.02,.83-2.55,0-4.97-.32-7.01-.86-5.06,12.21-5.51,26.93,.9,37.62l12.06,.02c6.46-10.67,6.07-25.39,1.06-37.61Zm-7.05,19.04c-3.41,0-6.16-2.77-6.16-6.18,0-3.41,2.77-6.16,6.18-6.16,3.41,0,6.16,2.77,6.16,6.18,0,3.41-2.77,6.16-6.18,6.16Z"/><g><path class="cls-3" d="M14.79,51.15c.95-.28,1.88-.38,2.72-.34-1.15-3.12-1.84-6.39-2.14-9.73-.97,.59-1.96,1.49-2.71,2.7,1.05,2.2,1.81,4.75,2.13,7.37Z"/><path class="cls-3" d="M13.22,47.41c-.66-2.23-1.63-4.31-2.87-6.02-1.24,1.7-2.22,3.78-2.89,6.01,.93,.1,1.89,.15,2.88,.15,.98,0,1.95-.05,2.88-.14Zm.39,1.53c-1.06,.12-2.16,.18-3.27,.18-1.12,0-2.22-.07-3.27-.19-.98,4.33-.77,9.04,1.11,12.64h4.28c1.89-3.58,2.12-8.29,1.16-12.62Z"/></g><g><path class="cls-3" d="M38.88,51.2c-.95-.28-1.88-.39-2.72-.35,1.16-3.11,1.87-6.39,2.18-9.72,.97,.59,1.95,1.5,2.7,2.71-1.06,2.19-1.83,4.74-2.16,7.36Z"/><path class="cls-3" d="M43.35,47.62c.99,0,1.95-.05,2.88-.14-.66-2.23-1.63-4.31-2.87-6.02-1.24,1.7-2.22,3.78-2.89,6.01,.93,.1,1.9,.15,2.88,.15Zm-2.17,14.01h4.28c1.89-3.58,2.12-8.28,1.16-12.62-1.05,.12-2.15,.18-3.27,.18-1.11,0-2.21-.07-3.27-.19-.98,4.33-.77,9.04,1.11,12.64Z"/></g><path class="cls-3" d="M29.52,63.16c-.45,2.02-.76,3.56-2.02,5.26-2.82-1.49-4.26-3.6-4.92-5.27-.9,6.76,5.48,7.26,2.47,14.22,5.72-2.17,8.96-9.38,4.47-14.21Z"/></g></g></svg>