<?xml version="1.0" encoding="utf-8"?>
<!-- Generator: Adobe Illustrator 26.3.1, SVG Export Plug-In . SVG Version: 6.00 Build 0)  -->
<svg version="1.1" id="레이어_1" xmlns="http://www.w3.org/2000/svg" xmlns:xlink="http://www.w3.org/1999/xlink" x="0px"
	 y="0px" viewBox="0 0 700 700" style="enable-background:new 0 0 700 700;" xml:space="preserve">
<style type="text/css">
	.st0{fill:#B73BFC;}
</style>
<path class="st0" d="M268.2,57C152,57,57,151.9,57,268.2s95,211.2,211.2,211.2c45.9,0,88.4-14.8,123.1-39.8L584.9,633
	c13.3,13.3,34.8,13.3,48.1,0c13.3-13.3,13.3-35,0-48.3L439.5,391.2c25-34.7,40-77.2,40-123C479.5,151.9,384.5,57,268.2,57L268.2,57z
	 M268.2,125.1c79.4,0,143.1,63.6,143.1,143c0,79.4-63.7,143-143.1,143s-143.1-63.6-143.1-143C125.1,188.8,188.8,125.1,268.2,125.1
	L268.2,125.1z"/>
</svg>
