<?xml version="1.0" encoding="UTF-8"?><svg id="_레이어_2" xmlns="http://www.w3.org/2000/svg" viewBox="0 0 441.04 98.64"><defs><style>.cls-1{fill:#fff;}.cls-2{fill:#10b7ff;}</style></defs><g id="_레이어_1-2"><g><path class="cls-1" d="M190.66,86.4c-1.2,1.6-2.74,3.12-4.62,4.56-1.88,1.44-4.08,2.74-6.6,3.9-2.52,1.16-5.38,2.08-8.58,2.76-3.2,.68-6.64,1.02-10.32,1.02-5.2,0-9.92-.86-14.16-2.58-4.24-1.72-7.9-4.1-10.98-7.14-3.08-3.04-5.46-6.66-7.14-10.86-1.68-4.2-2.52-8.78-2.52-13.74s.8-9.56,2.4-13.8c1.6-4.24,3.9-7.9,6.9-10.98,3-3.08,6.58-5.5,10.74-7.26,4.16-1.76,8.84-2.64,14.04-2.64s9.78,.88,13.98,2.64c4.2,1.76,7.8,4.18,10.8,7.26,3,3.08,5.3,6.74,6.9,10.98,1.6,4.24,2.4,8.84,2.4,13.8v6.48h-50.64c1.04,4.32,3.04,7.7,6,10.14,2.96,2.44,6.72,3.66,11.28,3.66,4.32,0,8.26-.78,11.82-2.34,3.56-1.56,6.38-3.58,8.46-6.06l9.84,10.2Zm-30.84-42.6c-4.56,0-8.18,1.17-10.86,3.51-2.68,2.34-4.54,5.69-5.58,10.05h32.88c-.96-3.87-2.8-7.1-5.52-9.68-2.72-2.58-6.36-3.88-10.92-3.88Z"/><path class="cls-2" d="M230.98,29.4c5.76,0,10.66,.82,14.7,2.46,4.04,1.64,7.74,4.38,11.1,8.22l-10.2,10.08c-2.16-2.56-4.66-4.32-7.5-5.28-2.84-.96-5.54-1.44-8.1-1.44-2.32,0-4.36,.54-6.12,1.62-1.76,1.08-2.64,2.54-2.64,4.38s1.04,3.02,3.12,3.78c2.08,.76,4.52,1.5,7.32,2.22l8.88,2.28c5.76,1.52,10.2,3.94,13.32,7.26,3.12,3.32,4.68,7.38,4.68,12.18,0,3.52-.76,6.6-2.28,9.24-1.52,2.64-3.6,4.86-6.24,6.66-2.64,1.8-5.72,3.16-9.24,4.08-3.52,.92-7.24,1.38-11.16,1.38-2.56,0-5.2-.3-7.92-.9-2.72-.6-5.38-1.48-7.98-2.64-2.6-1.16-5.02-2.56-7.26-4.2-2.24-1.64-4.12-3.5-5.64-5.58l10.2-10.8c1.12,1.36,2.44,2.64,3.96,3.84,1.52,1.2,3.12,2.26,4.8,3.18,1.68,.92,3.36,1.64,5.04,2.16,1.68,.52,3.24,.78,4.68,.78,3.36,0,6.18-.6,8.46-1.8,2.28-1.2,3.42-3.08,3.42-5.64,0-2-1.1-3.68-3.3-5.04-2.2-1.36-4.98-2.36-8.34-3-8.72-1.68-15.18-4.02-19.38-7.02s-6.3-7.02-6.3-12.06c0-3.04,.68-5.82,2.04-8.34,1.36-2.52,3.2-4.68,5.52-6.48,2.32-1.8,5.06-3.18,8.22-4.14,3.16-.96,6.54-1.44,10.14-1.44Z"/><path class="cls-1" d="M332.38,86.4c-1.2,1.6-2.74,3.12-4.62,4.56-1.88,1.44-4.08,2.74-6.6,3.9-2.52,1.16-5.38,2.08-8.58,2.76-3.2,.68-6.64,1.02-10.32,1.02-5.2,0-9.92-.86-14.16-2.58-4.24-1.72-7.9-4.1-10.98-7.14-3.08-3.04-5.46-6.66-7.14-10.86-1.68-4.2-2.52-8.78-2.52-13.74s.8-9.56,2.4-13.8c1.6-4.24,3.9-7.9,6.9-10.98,3-3.08,6.58-5.5,10.74-7.26,4.16-1.76,8.84-2.64,14.04-2.64s9.78,.88,13.98,2.64c4.2,1.76,7.8,4.18,10.8,7.26,3,3.08,5.3,6.74,6.9,10.98,1.6,4.24,2.4,8.84,2.4,13.8v6.48h-50.64c1.04,4.32,3.04,7.7,6,10.14,2.96,2.44,6.72,3.66,11.28,3.66,4.32,0,8.26-.78,11.82-2.34,3.56-1.56,6.38-3.58,8.46-6.06l9.84,10.2Zm-30.84-42.6c-4.56,0-8.18,1.17-10.86,3.51-2.68,2.34-4.54,5.69-5.58,10.05h32.88c-.96-3.87-2.8-7.1-5.52-9.68-2.72-2.58-6.36-3.88-10.92-3.88Z"/><path class="cls-1" d="M376.06,97.32c-.32,.16-.8,.28-1.44,.36-.64,.08-1.32,.16-2.04,.24-.72,.08-1.42,.12-2.1,.12h-1.5c-14.16,0-21.24-6.76-21.24-20.28V0h17.04V76.56c0,1.84,.5,3.5,1.5,4.98,1,1.48,2.3,2.22,3.9,2.22h5.88v13.56Z"/><path class="cls-1" d="M413.98,97.32c-.32,.16-.8,.28-1.44,.36-.64,.08-1.32,.16-2.04,.24-.72,.08-1.42,.12-2.1,.12h-1.5c-14.16,0-21.24-6.76-21.24-20.28V0h17.04V76.56c0,1.84,.5,3.5,1.5,4.98,1,1.48,2.3,2.22,3.9,2.22h5.88v13.56Z"/><path class="cls-1" d="M439.84,98.04h-14.4c-.66,0-1.2-.54-1.2-1.2v-14.4c0-.66,.54-1.2,1.2-1.2h14.4c.66,0,1.2,.54,1.2,1.2v14.4c0,.66-.54,1.2-1.2,1.2Z"/><polygon class="cls-1" points="58.85 15.44 39.53 62.84 32.93 98.48 41.81 98.48 62.93 45.32 58.85 15.44"/><polygon class="cls-2" points="108.7 1.86 90.82 61.02 71.26 13.74 63.1 13.74 67.18 43.62 88.3 96.78 97.3 96.78 125.74 1.86 108.7 1.86"/><polygon class="cls-2" points="17.04 1.86 0 1.86 28.68 96.78 35.28 61.14 17.04 1.86"/><path class="cls-1" d="M190.66,86.4c-1.2,1.6-2.74,3.12-4.62,4.56-1.88,1.44-4.08,2.74-6.6,3.9-2.52,1.16-5.38,2.08-8.58,2.76-3.2,.68-6.64,1.02-10.32,1.02-5.2,0-9.92-.86-14.16-2.58-4.24-1.72-7.9-4.1-10.98-7.14-3.08-3.04-5.46-6.66-7.14-10.86-1.68-4.2-2.52-8.78-2.52-13.74s.8-9.56,2.4-13.8c1.6-4.24,3.9-7.9,6.9-10.98,3-3.08,6.58-5.5,10.74-7.26,4.16-1.76,8.84-2.64,14.04-2.64s9.78,.88,13.98,2.64c4.2,1.76,7.8,4.18,10.8,7.26,3,3.08,5.3,6.74,6.9,10.98,1.6,4.24,2.4,8.84,2.4,13.8v6.48h-50.64c1.04,4.32,3.04,7.7,6,10.14,2.96,2.44,6.72,3.66,11.28,3.66,4.32,0,8.26-.78,11.82-2.34,3.56-1.56,6.38-3.58,8.46-6.06l9.84,10.2Zm-30.84-42.6c-4.56,0-8.18,1.17-10.86,3.51-2.68,2.34-4.54,5.69-5.58,10.05h32.88c-.96-3.87-2.8-7.1-5.52-9.68-2.72-2.58-6.36-3.88-10.92-3.88Z"/><path class="cls-1" d="M332.38,86.4c-1.2,1.6-2.74,3.12-4.62,4.56-1.88,1.44-4.08,2.74-6.6,3.9-2.52,1.16-5.38,2.08-8.58,2.76-3.2,.68-6.64,1.02-10.32,1.02-5.2,0-9.92-.86-14.16-2.58-4.24-1.72-7.9-4.1-10.98-7.14-3.08-3.04-5.46-6.66-7.14-10.86-1.68-4.2-2.52-8.78-2.52-13.74s.8-9.56,2.4-13.8c1.6-4.24,3.9-7.9,6.9-10.98,3-3.08,6.58-5.5,10.74-7.26,4.16-1.76,8.84-2.64,14.04-2.64s9.78,.88,13.98,2.64c4.2,1.76,7.8,4.18,10.8,7.26,3,3.08,5.3,6.74,6.9,10.98,1.6,4.24,2.4,8.84,2.4,13.8v6.48h-50.64c1.04,4.32,3.04,7.7,6,10.14,2.96,2.44,6.72,3.66,11.28,3.66,4.32,0,8.26-.78,11.82-2.34,3.56-1.56,6.38-3.58,8.46-6.06l9.84,10.2Zm-30.84-42.6c-4.56,0-8.18,1.17-10.86,3.51-2.68,2.34-4.54,5.69-5.58,10.05h32.88c-.96-3.87-2.8-7.1-5.52-9.68-2.72-2.58-6.36-3.88-10.92-3.88Z"/><path class="cls-1" d="M376.06,97.32c-.32,.16-.8,.28-1.44,.36-.64,.08-1.32,.16-2.04,.24-.72,.08-1.42,.12-2.1,.12h-1.5c-14.16,0-21.24-6.76-21.24-20.28V0h17.04V76.56c0,1.84,.5,3.5,1.5,4.98,1,1.48,2.3,2.22,3.9,2.22h5.88v13.56Z"/><path class="cls-1" d="M413.98,97.32c-.32,.16-.8,.28-1.44,.36-.64,.08-1.32,.16-2.04,.24-.72,.08-1.42,.12-2.1,.12h-1.5c-14.16,0-21.24-6.76-21.24-20.28V0h17.04V76.56c0,1.84,.5,3.5,1.5,4.98,1,1.48,2.3,2.22,3.9,2.22h5.88v13.56Z"/></g></g></svg>