<?xml version="1.0" encoding="utf-8"?>
<!-- Generator: Adobe Illustrator 26.3.1, SVG Export Plug-In . SVG Version: 6.00 Build 0)  -->
<svg version="1.1" id="Layer_1" xmlns="http://www.w3.org/2000/svg" xmlns:xlink="http://www.w3.org/1999/xlink" x="0px" y="0px"
	 viewBox="0 0 100 100" style="enable-background:new 0 0 100 100;" xml:space="preserve">
<style type="text/css">
	.st0{fill:#FFFFFF;}
</style>
<g>
	<path class="st0" d="M57.3,44.5l12.7-12.3l-51-28.3c-1.4-0.8-2.8-1.1-4.3-1L57.3,44.5z"/>
	<path class="st0" d="M7.8,7.3c-0.6,1.2-1,2.5-1,3.9v77.6c0,1.4,0.4,2.7,1,3.9L51.6,50L7.8,7.3z"/>
	<path class="st0" d="M88.9,42.7l-11.9-6.6L62.9,50l14.2,13.8l11.9-6.6c2.7-1.5,4.2-4.2,4.2-7.3C93.2,46.9,91.6,44.2,88.9,42.7z"/>
	<path class="st0" d="M57.3,55.5L14.6,97c0.1,0,0.3,0.1,0.4,0.1c1.3,0,2.7-0.3,3.9-1l51-28.3L57.3,55.5z"/>
</g>
</svg>
