<?xml version="1.0" encoding="UTF-8"?><svg id="_이어_2" xmlns="http://www.w3.org/2000/svg" viewBox="0 0 67 67"><defs><style>.cls-1{fill:#5e5e5e;}</style></defs><g id="transport"><g><path class="cls-1" d="M33.5,0C15.03,0,0,15.03,0,33.5s15.03,33.5,33.5,33.5,33.5-15.03,33.5-33.5S51.97,0,33.5,0Zm30.02,38.85c-.12,0-.26-.03-.46-.11-1.36-.51-3.05-2.58-2.6-4.38,.67-2.66-.86-4.17-2.09-5.37-1.29-1.26-2.3-2.26-1.89-4.74,.67-4.01,2.8-5.32,3.6-5.68,2.49,4.42,3.92,9.51,3.92,14.93,0,1.82-.17,3.61-.48,5.35ZM33.5,3c1.68,0,3.32,.14,4.92,.4-.31,1.45-.15,3.38,.06,5.62,.18,2.02,.39,4.32,.06,5.61-.94,3.76-6.87,3.86-7.54,3.86-3.79,0-5.51,1.38-7.39,5.93-1.17,2.83-3.89,4.1-5.98,3.87-2.15-.23-3.66-1.89-4.15-4.57-.84-4.56-3.35-6.56-5.15-7.43C13.83,8.28,23.06,3,33.5,3Zm0,61c-16.82,0-30.5-13.68-30.5-30.5,0-5.3,1.36-10.28,3.74-14.62,1.11,.46,3.12,1.78,3.78,5.4,.74,4.02,3.28,6.64,6.79,7.01,.28,.03,.56,.04,.84,.04,3.49,0,6.8-2.27,8.23-5.76,1.61-3.92,2.53-4.07,4.61-4.07,4.12,0,9.32-1.61,10.46-6.14,.45-1.79,.23-4.24,.01-6.61-.13-1.46-.34-3.76-.13-4.73,7.03,1.87,13.06,6.2,17.14,12-1.54,.81-4.14,2.87-4.95,7.73-.67,4.02,1.3,5.96,2.74,7.38,1.22,1.2,1.51,1.6,1.28,2.5-.84,3.35,1.67,6.86,4.46,7.91,.29,.11,.57,.18,.85,.23-3.62,12.81-15.4,22.22-29.35,22.22Z"/><path class="cls-1" d="M31.98,31.94c-3.87,1.09-4.87,3.74-5.75,6.08-.74,1.97-1.45,3.84-3.86,5.25-.9,.07-2.87,.41-3.73,2.08-.8,1.55-.33,3.49,1.45,5.93,3.13,4.3,5.45,4.15,7.94,3.55,.83-.2,1.55-.37,2.37-.2,.51,.11,1.06,.27,1.65,.43,1.41,.4,3.21,.9,5.1,.9,2.65,0,5.48-1,7.62-4.71,3.03-5.25,2.9-10.88-.35-15.06-2.96-3.81-7.96-5.52-12.44-4.25Zm10.2,17.81c-2.32,4.02-5.33,3.54-9.32,2.42-.65-.18-1.27-.36-1.83-.48-.47-.1-.91-.14-1.32-.14-.91,0-1.7,.19-2.38,.35-1.67,.4-2.6,.63-4.81-2.4-1.22-1.68-1.33-2.55-1.21-2.78,.13-.26,.91-.47,1.47-.47h.38l.34-.18c3.64-1.96,4.69-4.75,5.54-7,.81-2.15,1.35-3.57,3.76-4.25,3.32-.93,7.04,.35,9.26,3.21,2.51,3.23,2.56,7.51,.12,11.72Z"/></g></g></svg>