<?xml version="1.0" encoding="UTF-8"?><svg id="_이어_2" xmlns="http://www.w3.org/2000/svg" viewBox="0 0 17.75 28.4"><defs><style>.cls-1{fill:#3e3e3e;}</style></defs><g id="_이어_1-2"><path class="cls-1" d="M14.79,0H2.96C1.33,0,0,1.33,0,2.96V25.44c0,1.63,1.33,2.96,2.96,2.96H14.79c1.63,0,2.96-1.33,2.96-2.96V2.96c0-1.63-1.33-2.96-2.96-2.96Zm-4.73,26.03h-2.37c-.33,0-.59-.26-.59-.59s.26-.59,.59-.59h2.37c.33,0,.59,.26,.59,.59s-.26,.59-.59,.59Zm6.51-3.55H1.18V2.96c0-.98,.8-1.78,1.78-1.78H14.79c.98,0,1.78,.8,1.78,1.78V22.48Z"/></g></svg>