<?xml version="1.0" encoding="UTF-8"?><svg id="_이어_2" xmlns="http://www.w3.org/2000/svg" viewBox="0 0 82.67 82.67"><g id="_이어_1-2"><g><path d="M70.75,42.51c-1.76,0-3.19,1.43-3.19,3.19v27.02c0,1.97-1.6,3.57-3.57,3.57H9.94c-1.97,0-3.57-1.6-3.57-3.57V18.67c0-1.97,1.6-3.57,3.57-3.57h25.76c1.76,0,3.19-1.43,3.19-3.19s-1.43-3.19-3.19-3.19H9.94C4.46,8.73,0,13.19,0,18.67v54.05c0,5.48,4.46,9.94,9.94,9.94H63.99c5.48,0,9.95-4.46,9.95-9.94v-27.02c0-1.76-1.43-3.19-3.19-3.19Z"/><path d="M80.75,10.65L72.01,1.92c-1.24-1.24-2.89-1.92-4.64-1.92s-3.41,.68-4.64,1.92l-31.39,31.39c-.6,.6-.93,1.4-.93,2.25v12.19l-2.44,2.44c-1.24,1.24-1.24,3.27,0,4.51,.6,.6,1.4,.93,2.25,.93s1.65-.33,2.25-.93l2.44-2.44h12.19c.85,0,1.66-.33,2.25-.93l31.39-31.39c1.24-1.24,1.92-2.89,1.92-4.64s-.68-3.4-1.92-4.64Zm-14.51,14.78l-20.46,20.46h-9v-9l20.46-20.46,9,9Zm10-10l-5.49,5.49-9-9,5.49-5.49c.07-.07,.19-.07,.27,0l8.73,8.74c.08,.08,.08,.19,0,.27Z"/></g></g></svg>