<?xml version="1.0" encoding="UTF-8"?><svg id="_이어_2" xmlns="http://www.w3.org/2000/svg" viewBox="0 0 25 24.1"><defs><style>.cls-1{fill:#3e3e3e;}</style></defs><g id="_이어_1-2"><path class="cls-1" d="M24.02,7.62h0c-.64-1.5-1.55-2.83-2.68-3.97-1.14-1.14-2.47-2.04-3.97-2.68-3.09-1.3-6.64-1.3-9.74,0-1.49,.64-2.82,1.54-3.96,2.68-1.14,1.13-2.04,2.47-2.69,3.97-.65,1.54-.98,3.18-.98,4.87s.33,3.33,.98,4.88c.64,1.49,1.55,2.83,2.68,3.96,1.14,1.14,2.47,2.04,3.96,2.68,.13,.05,.26,.08,.4,.08,.4,0,.76-.24,.92-.6,.11-.25,.11-.52,.01-.77-.1-.25-.29-.44-.53-.55-1.26-.54-2.38-1.3-3.34-2.26s-1.72-2.08-2.26-3.33c-.55-1.3-.82-2.67-.82-4.09s.28-2.79,.82-4.08c.54-1.26,1.3-2.38,2.26-3.34s2.08-1.72,3.33-2.25c2.6-1.09,5.58-1.09,8.18,0,1.26,.54,2.38,1.3,3.34,2.26s1.72,2.08,2.26,3.33c.55,1.3,.82,2.67,.82,4.09,0,1.75-.25,3.03-.78,4-.57,1.04-1.99,2.22-2.78,2.07-.51-.1-.9-1.02-1.05-2.45-.29-2.83-.44-6.82,.56-9.8,.17-.52-.11-1.09-.63-1.26-.25-.08-.53-.07-.76,.05-.24,.12-.42,.33-.5,.58-.05,.16-.1,.32-.15,.49-.95-.71-2.42-1.17-3.9-1.17-3.22,0-8,2.13-8,8,0,2.26,1.12,4.43,2.98,5.82,1.68,1.25,3.82,1.68,5.6,1.14,1.35-.41,2.36-1,3.16-1.86,.44,1.4,1.21,2.22,2.3,2.44,1.99,.41,4.12-1.59,4.92-3.07,.7-1.28,1.02-2.85,1.02-4.96,0-1.69-.33-3.33-.98-4.87Zm-7.71,7.65c-.08,.08-.15,.16-.2,.26-.7,1.35-1.54,2.03-3.1,2.5-1.21,.37-2.64,.05-3.83-.83-1.36-1.01-2.18-2.59-2.18-4.21,0-4.4,3.59-6,6-6,1.67,0,2.9,.79,3,1,0,.31,.15,.59,.38,.78-.24,1.89-.26,4.08-.07,6.5Z"/></g></svg>