<?xml version="1.0" encoding="UTF-8"?><svg id="_이어_2" xmlns="http://www.w3.org/2000/svg" xmlns:xlink="http://www.w3.org/1999/xlink" viewBox="0 0 678.1 137.35"><defs><style>.cls-1{fill:url(#_제_그라디언트_289);}.cls-2{fill:url(#_제_그라디언트_289-2);}.cls-3{fill:#23cbb9;}</style><linearGradient id="_제_그라디언트_289" x1="-21.2" y1="-424.93" x2="-21.2" y2="-569.94" gradientTransform="translate(-273.09 429.59) rotate(48.15)" gradientUnits="userSpaceOnUse"><stop offset=".14" stop-color="#dcc8d7"/><stop offset=".33" stop-color="#a7c8ce"/><stop offset=".56" stop-color="#6ec9c5"/><stop offset=".75" stop-color="#45cabe"/><stop offset=".91" stop-color="#2ccaba"/><stop offset="1" stop-color="#23cbb9"/></linearGradient><linearGradient id="_제_그라디언트_289-2" x1="14.1" y1="92.39" x2="101.74" y2="13.9" gradientTransform="matrix(1, 0, 0, 1, 0, 0)" xlink:href="#_제_그라디언트_289"/></defs><g id="_이어_1-2"><g><g><g><path class="cls-3" d="M204.11,104.05h-35.42V48.18h35.42v7.59h-26.38v14.17h24.58v7.52h-24.58v19.01h26.38v7.59Z"/><path class="cls-3" d="M211.55,74.78c-.24,.19-.47,.23-.69,.11s-.33-.32-.33-.62v-7.81c2.31-1.54,4.76-2.75,7.34-3.61,2.58-.87,5.48-1.3,8.71-1.3,4.87,0,8.42,1.19,10.66,3.58s3.36,6.13,3.36,11.24v27.68h-7.95l-.43-4.99h-.07c-1.25,1.73-2.94,3.14-5.06,4.23-2.12,1.09-4.41,1.63-6.87,1.63-4.39,0-7.72-1.06-10.01-3.18-2.29-2.12-3.43-5.13-3.43-9.04s1.2-7.02,3.61-9.5c2.41-2.48,5.88-4.06,10.41-4.73l10.91-1.81v-.36c0-2.55-.47-4.4-1.41-5.53-.94-1.13-2.66-1.7-5.17-1.7-2.22,0-4.41,.42-6.58,1.27-2.17,.84-4.51,2.33-7.01,4.44Zm20.38,12.94v-4.55l-8.67,1.23c-2.41,.34-4.28,1.15-5.6,2.46-1.33,1.3-1.99,3.01-1.99,5.13,0,1.88,.54,3.28,1.63,4.19,1.08,.92,2.59,1.37,4.52,1.37,1.3,0,2.55-.28,3.76-.83,1.2-.55,2.28-1.3,3.22-2.24s1.7-1.99,2.28-3.14c.58-1.16,.87-2.36,.87-3.61Z"/><path class="cls-3" d="M273.57,74.63c-2.31-1.83-4.45-3.2-6.4-4.12-1.95-.91-4.06-1.37-6.33-1.37-1.78,0-3.06,.35-3.83,1.05-.77,.7-1.16,1.7-1.16,3,0,1.49,.42,2.57,1.26,3.22,.84,.65,1.96,1.24,3.36,1.77l4.63,2.02c1.49,.67,2.91,1.37,4.26,2.09,1.35,.72,2.53,1.55,3.54,2.49s1.81,2.02,2.39,3.25,.87,2.69,.87,4.37c0,1.93-.41,3.67-1.23,5.24-.82,1.57-1.93,2.89-3.33,3.98-1.4,1.08-3.06,1.93-4.99,2.53s-4,.9-6.22,.9c-2.51,0-5.04-.34-7.59-1.01-2.55-.67-4.99-1.86-7.3-3.54v-7.59c0-.29,.11-.48,.33-.58s.45-.07,.69,.07c2.17,1.69,4.42,3.01,6.76,3.97,2.34,.97,4.61,1.45,6.83,1.45,2.36,0,4.08-.41,5.17-1.23,1.08-.82,1.63-2.02,1.63-3.61,0-1.06-.41-1.99-1.23-2.78-.82-.79-2.14-1.6-3.98-2.42l-4.12-1.81c-1.78-.77-3.35-1.55-4.7-2.35-1.35-.8-2.48-1.69-3.4-2.67-.92-.99-1.62-2.08-2.1-3.29-.48-1.2-.72-2.65-.72-4.34,0-1.59,.34-3.06,1.01-4.41,.67-1.35,1.64-2.53,2.89-3.54,1.25-1.01,2.77-1.79,4.55-2.35,1.78-.55,3.81-.83,6.07-.83s4.42,.31,6.61,.94c2.19,.63,4.45,1.76,6.76,3.4v7.59c0,.29-.11,.48-.33,.58-.22,.1-.45,.07-.69-.07Z"/><path class="cls-3" d="M293.09,102.53v-.29l-15.83-39.1h9.47l9.61,26.6,1.16,4.12,.94-4.12,8.75-26.6h9.25l-16.7,44.67c-.72,2.02-1.53,3.88-2.42,5.57s-1.91,3.14-3.07,4.37c-1.16,1.23-2.52,2.18-4.08,2.86-1.57,.67-3.39,1.01-5.46,1.01-.96,0-1.89-.05-2.78-.15-.89-.1-1.8-.31-2.71-.65v-6.72c0-.63,.31-.77,.94-.43,1.06,.58,2.53,.87,4.41,.87,1.3,0,2.48-.34,3.54-1.01,1.06-.67,1.93-2,2.6-3.98l2.39-7.01Z"/><path class="cls-3" d="M352.94,80.69v7.59h-32.17v-7.59h32.17Z"/></g><g><path class="cls-3" d="M399.1,104.05h-35.42V48.18h35.42v7.59h-26.38v14.17h24.58v7.52h-24.58v19.01h26.38v7.59Z"/><path class="cls-3" d="M424.68,83.23l14.38,20.82h-9.76l-9.11-13.81h-.14l-9.04,13.81h-9.69l14.31-20.82v-.14l-14.1-19.95h9.76l8.75,13.73h.14l8.96-13.73h9.61l-14.09,19.95v.14Z"/><path class="cls-3" d="M471.67,74.63c-1.54-1.69-3.22-2.95-5.02-3.79-1.81-.84-3.92-1.26-6.32-1.26-1.93,0-3.61,.36-5.06,1.08-1.45,.72-2.64,1.72-3.58,3-.94,1.28-1.65,2.78-2.13,4.52-.48,1.73-.72,3.61-.72,5.64,0,4.29,.96,7.69,2.89,10.19,1.93,2.51,4.91,3.76,8.96,3.76,2.36,0,4.45-.46,6.25-1.37,1.81-.91,3.48-2.29,5.02-4.12,.19-.24,.41-.31,.65-.22,.24,.1,.36,.29,.36,.58v7.88c-1.78,1.69-3.7,2.87-5.75,3.54-2.05,.67-4.37,1.01-6.98,1.01-3.04,0-5.83-.45-8.38-1.34-2.55-.89-4.75-2.22-6.58-3.97-1.83-1.76-3.25-3.96-4.26-6.62-1.01-2.65-1.52-5.73-1.52-9.25,0-3.33,.48-6.32,1.45-9,.96-2.67,2.34-4.95,4.12-6.83,1.78-1.88,3.95-3.33,6.51-4.34,2.55-1.01,5.4-1.52,8.53-1.52,2.46,0,4.71,.34,6.76,1.01,2.05,.68,3.99,1.76,5.82,3.25v7.81c0,.29-.12,.48-.36,.58-.24,.1-.46,.02-.65-.22Z"/><path class="cls-3" d="M478.24,104.05V44.2h8.96v24.07h.07c1.25-1.69,2.88-3.11,4.88-4.26,2-1.16,4.25-1.73,6.76-1.73,4.53,0,7.96,1.35,10.3,4.05,2.34,2.7,3.51,6.82,3.51,12.36v25.37h-8.89v-25.8c0-3.37-.63-5.72-1.88-7.05-1.25-1.32-3.01-1.99-5.28-1.99-1.3,0-2.53,.29-3.69,.87s-2.17,1.41-3.04,2.49c-.87,1.08-1.55,2.41-2.06,3.98-.51,1.57-.76,3.34-.76,5.31v22.19h-8.89Z"/><path class="cls-3" d="M522.19,74.78c-.24,.19-.47,.23-.69,.11s-.33-.32-.33-.62v-7.81c2.31-1.54,4.76-2.75,7.34-3.61,2.58-.87,5.48-1.3,8.71-1.3,4.87,0,8.42,1.19,10.66,3.58,2.24,2.39,3.36,6.13,3.36,11.24v27.68h-7.95l-.43-4.99h-.07c-1.25,1.73-2.94,3.14-5.06,4.23-2.12,1.09-4.41,1.63-6.87,1.63-4.39,0-7.72-1.06-10.01-3.18-2.29-2.12-3.43-5.13-3.43-9.04s1.2-7.02,3.61-9.5c2.41-2.48,5.88-4.06,10.41-4.73l10.91-1.81v-.36c0-2.55-.47-4.4-1.41-5.53-.94-1.13-2.66-1.7-5.17-1.7-2.22,0-4.41,.42-6.58,1.27-2.17,.84-4.51,2.33-7.01,4.44Zm20.38,12.94v-4.55l-8.67,1.23c-2.41,.34-4.28,1.15-5.6,2.46-1.33,1.3-1.99,3.01-1.99,5.13,0,1.88,.54,3.28,1.63,4.19,1.08,.92,2.59,1.37,4.52,1.37,1.3,0,2.55-.28,3.76-.83,1.2-.55,2.28-1.3,3.22-2.24s1.7-1.99,2.28-3.14c.58-1.16,.87-2.36,.87-3.61Z"/><path class="cls-3" d="M567.15,68.27h.07c1.25-1.69,2.88-3.11,4.88-4.26,2-1.16,4.25-1.73,6.76-1.73,4.53,0,7.96,1.35,10.3,4.05,2.34,2.7,3.51,6.82,3.51,12.36v25.37h-8.89v-25.8c0-3.37-.63-5.72-1.88-7.05-1.25-1.32-3.01-1.99-5.28-1.99-1.3,0-2.53,.29-3.69,.87s-2.17,1.41-3.04,2.49c-.87,1.08-1.55,2.41-2.06,3.98-.51,1.57-.76,3.34-.76,5.31v22.19h-8.89V63.14h8.53l.43,5.13Z"/><path class="cls-3" d="M601.56,110.05c2.17,1.54,4.22,2.66,6.14,3.36,1.93,.7,3.9,1.05,5.93,1.05,4.29,0,7.31-.99,9.07-2.96,1.76-1.98,2.64-4.79,2.64-8.46v-5.35h-.07c-1.11,1.74-2.65,3.13-4.63,4.19-1.98,1.06-4.14,1.59-6.5,1.59-5.3,0-9.45-1.59-12.43-4.77-2.99-3.18-4.48-7.9-4.48-14.17,0-3.33,.36-6.36,1.08-9.11,.72-2.75,1.81-5.1,3.25-7.05,1.45-1.95,3.22-3.47,5.31-4.55s4.52-1.63,7.26-1.63c2.5,0,4.64,.49,6.4,1.48,1.76,.99,3.22,2.25,4.37,3.79h.07l.51-4.34h8.67l.07,36.94c0,3.76-.39,7-1.16,9.72-.77,2.72-1.98,4.96-3.61,6.72-1.64,1.76-3.73,3.05-6.29,3.87-2.55,.82-5.59,1.23-9.11,1.23-2.7,0-5.12-.27-7.26-.8-2.14-.53-4.23-1.35-6.25-2.46v-7.81c0-.29,.11-.48,.33-.58,.22-.1,.45-.07,.69,.07Zm23.78-25.15v-4.77c0-1.45-.23-2.82-.69-4.12-.46-1.3-1.1-2.43-1.91-3.4-.82-.96-1.8-1.72-2.93-2.28-1.13-.55-2.35-.83-3.65-.83-2.99,0-5.35,1.28-7.08,3.83-1.74,2.55-2.6,6.27-2.6,11.13,0,2.17,.23,4.01,.69,5.53,.46,1.52,1.1,2.76,1.92,3.72,.82,.96,1.77,1.66,2.85,2.1,1.08,.43,2.25,.65,3.51,.65,3.13,0,5.57-1.07,7.3-3.22,1.73-2.14,2.6-4.93,2.6-8.35Z"/><path class="cls-3" d="M675.14,92.12c.19-.19,.41-.23,.65-.11,.24,.12,.36,.33,.36,.61v7.16c-1.4,1.69-3.49,2.96-6.29,3.83-2.79,.87-5.88,1.3-9.25,1.3-2.89,0-5.55-.48-7.99-1.45-2.43-.96-4.52-2.36-6.25-4.19-1.74-1.83-3.08-4.05-4.05-6.65-.96-2.6-1.45-5.57-1.45-8.89s.48-6.08,1.45-8.71c.96-2.63,2.3-4.89,4.01-6.79,1.71-1.9,3.76-3.38,6.14-4.45,2.39-1.06,5.02-1.59,7.91-1.59,5.78,0,10.18,1.78,13.19,5.35,3.01,3.57,4.52,8.63,4.52,15.18v2.89h-28.41v.22c.24,4,1.42,6.99,3.54,8.96,2.12,1.98,4.92,2.96,8.38,2.96,2.6,0,5.05-.52,7.34-1.55,2.29-1.04,4.35-2.4,6.18-4.08Zm-24.94-13.37h18.58v-.22c0-3.13-.75-5.52-2.24-7.15-1.49-1.64-3.57-2.46-6.22-2.46-2.46,0-4.61,.87-6.47,2.6-1.86,1.73-3.07,4.12-3.65,7.16v.07Z"/></g></g><g><path class="cls-1" d="M122.02,16.47c-6.28-7.02-13.63-12.5-21.58-16.47,9.99,27.09,3.17,58.7-19.64,79.13C57.99,99.56,25.83,102.87,0,89.96c3.07,8.33,7.72,16.24,14,23.25,26.72,29.83,72.55,32.35,102.38,5.64,29.83-26.72,32.35-72.55,5.64-102.38Z"/><path class="cls-2" d="M85.87,1.59c3.39,4.84,5.08,10.83,5.77,16.85,.55,6.05,.06,12.23-1.43,18.16-1.33,6-3.89,11.64-6.88,17.05-3.17,5.31-7.12,10.23-11.8,14.54-4.83,4.11-10.09,7.53-15.71,10.08-5.67,2.41-11.54,4.34-17.63,5.08-6.04,.89-12.24,.77-18.2-.38-5.93-1.27-11.72-3.57-16.18-7.46l-.07-.06c-.16-.14-.18-.39-.04-.55,.12-.14,.31-.17,.47-.09,10.09,4.89,21.88,4.93,32.66,2.46,10.83-2.53,21.15-7.59,29.42-14.99,8.29-7.37,14.41-17.12,18.01-27.64,3.54-10.48,4.62-22.21,.87-32.76-.07-.2,.03-.43,.24-.5,.17-.06,.35,0,.45,.14l.06,.08Z"/></g></g></g></svg>